<?xml version="1.0" encoding="UTF-8"?>
<svg width="800" height="200" viewBox="0 0 800 200" xmlns="http://www.w3.org/2000/svg">
  <defs>
    <linearGradient id="bg" x1="0%" y1="0%" x2="100%" y2="100%">
      <stop offset="0%" style="stop-color:#1e3a8a;stop-opacity:1" />
      <stop offset="100%" style="stop-color:#3730a3;stop-opacity:1" />
    </linearGradient>
    <linearGradient id="bookGradient" x1="0%" y1="0%" x2="100%" y2="100%">
      <stop offset="0%" style="stop-color:#fbbf24;stop-opacity:1" />
      <stop offset="100%" style="stop-color:#f59e0b;stop-opacity:1" />
    </linearGradient>
  </defs>
  
  <!-- Background -->
  <rect width="800" height="200" fill="url(#bg)"/>
  
  <!-- Open book representing knowledge and stories -->
  <g transform="translate(100, 50)">
    <!-- Left page -->
    <path d="M0 20 Q0 0 20 0 L150 0 Q170 0 170 20 L170 120 Q170 140 150 140 L20 140 Q0 140 0 120 Z" 
          fill="#f8fafc" stroke="#e2e8f0" stroke-width="2"/>
    <!-- Right page -->
    <path d="M170 20 Q170 0 190 0 L320 0 Q340 0 340 20 L340 120 Q340 140 320 140 L190 140 Q170 140 170 120 Z" 
          fill="#f8fafc" stroke="#e2e8f0" stroke-width="2"/>
    <!-- Book spine shadow -->
    <line x1="170" y1="0" x2="170" y2="140" stroke="#cbd5e1" stroke-width="3"/>
    
    <!-- Code lines on left page -->
    <g stroke="#64748b" stroke-width="1.5" opacity="0.7">
      <line x1="20" y1="25" x2="140" y2="25"/>
      <line x1="20" y1="35" x2="130" y2="35"/>
      <line x1="20" y1="45" x2="120" y2="45"/>
      <line x1="30" y1="55" x2="140" y2="55"/>
      <line x1="30" y1="65" x2="125" y2="65"/>
    </g>
    
    <!-- Story elements on right page -->
    <g stroke="#64748b" stroke-width="1.5" opacity="0.7">
      <line x1="190" y1="25" x2="310" y2="25"/>
      <line x1="190" y1="35" x2="300" y2="35"/>
      <line x1="190" y1="45" x2="290" y2="45"/>
      <line x1="200" y1="55" x2="310" y2="55"/>
      <line x1="200" y1="65" x2="295" y2="65"/>
    </g>
  </g>
  
  <!-- Communication arrows showing code as storytelling -->
  <g transform="translate(500, 60)">
    <!-- Speech bubble representing communication -->
    <ellipse cx="60" cy="40" rx="50" ry="30" fill="#10b981" opacity="0.8"/>
    <path d="M30 60 L25 70 L40 65 Z" fill="#10b981" opacity="0.8"/>
    
    <!-- Dots in speech bubble -->
    <circle cx="45" cy="40" r="3" fill="white"/>
    <circle cx="60" cy="40" r="3" fill="white"/>
    <circle cx="75" cy="40" r="3" fill="white"/>
  </g>
  
  <!-- Code transformation arrows -->
  <g transform="translate(450, 100)" opacity="0.6">
    <path d="M0 0 L40 0 L35 -5 M35 5 L40 0" stroke="#fbbf24" stroke-width="2" fill="none"/>
    <path d="M60 0 L100 0 L95 -5 M95 5 L100 0" stroke="#fbbf24" stroke-width="2" fill="none"/>
  </g>
  
  <!-- Future self and teammate silhouettes -->
  <g transform="translate(600, 80)">
    <!-- Person 1 -->
    <circle cx="30" cy="20" r="12" fill="#8b5cf6" opacity="0.7"/>
    <rect x="20" y="32" width="20" height="25" rx="3" fill="#8b5cf6" opacity="0.7"/>
    
    <!-- Person 2 -->
    <circle cx="70" cy="20" r="12" fill="#06b6d4" opacity="0.7"/>
    <rect x="60" y="32" width="20" height="25" rx="3" fill="#06b6d4" opacity="0.7"/>
  </g>
  
  <!-- Connecting lines showing communication flow -->
  <g stroke="#fbbf24" stroke-width="1" opacity="0.4" fill="none">
    <path d="M440 100 Q520 80 580 100"/>
    <path d="M560 120 Q620 110 680 120"/>
  </g>
  
  <!-- Question mark representing "What story does my code tell?" -->
  <g transform="translate(720, 50)">
    <circle cx="20" cy="20" r="15" fill="none" stroke="#fbbf24" stroke-width="3"/>
    <path d="M15 15 Q15 10 20 10 Q25 10 25 15 Q25 18 20 20" stroke="#fbbf24" stroke-width="3" fill="none"/>
    <circle cx="20" cy="28" r="2" fill="#fbbf24"/>
  </g>
</svg>