<svg width="2610" height="1869" xmlns="http://www.w3.org/2000/svg" xmlns:xlink="http://www.w3.org/1999/xlink" xml:space="preserve" overflow="hidden"><defs><filter id="fx0" x="-10%" y="-10%" width="120%" height="120%" filterUnits="userSpaceOnUse" primitiveUnits="userSpaceOnUse"><feComponentTransfer color-interpolation-filters="sRGB"><feFuncR type="discrete" tableValues="0 0"/><feFuncG type="discrete" tableValues="0 0"/><feFuncB type="discrete" tableValues="0 0"/><feFuncA type="linear" slope="0.380392" intercept="0"/></feComponentTransfer><feGaussianBlur stdDeviation="4.8119 4.8119"/></filter><filter id="fx1" x="-10%" y="-10%" width="120%" height="120%" filterUnits="userSpaceOnUse" primitiveUnits="userSpaceOnUse"><feComponentTransfer color-interpolation-filters="sRGB"><feFuncR type="discrete" tableValues="0 0"/><feFuncG type="discrete" tableValues="0 0"/><feFuncB type="discrete" tableValues="0 0"/><feFuncA type="linear" slope="0.380392" intercept="0"/></feComponentTransfer><feGaussianBlur stdDeviation="4.8119 4.8119"/></filter><filter id="fx2" x="-10%" y="-10%" width="120%" height="120%" filterUnits="userSpaceOnUse" primitiveUnits="userSpaceOnUse"><feComponentTransfer color-interpolation-filters="sRGB"><feFuncR type="discrete" tableValues="0 0"/><feFuncG type="discrete" tableValues="0 0"/><feFuncB type="discrete" tableValues="0 0"/><feFuncA type="linear" slope="0.380392" intercept="0"/></feComponentTransfer><feGaussianBlur stdDeviation="4.8119 4.8119"/></filter><filter id="fx3" x="-10%" y="-10%" width="120%" height="120%" filterUnits="userSpaceOnUse" primitiveUnits="userSpaceOnUse"><feComponentTransfer color-interpolation-filters="sRGB"><feFuncR type="discrete" tableValues="0 0"/><feFuncG type="discrete" tableValues="0 0"/><feFuncB type="discrete" tableValues="0 0"/><feFuncA type="linear" slope="0.380392" intercept="0"/></feComponentTransfer><feGaussianBlur stdDeviation="4.8119 4.8119"/></filter><clipPath id="clip4"><rect x="294" y="480" width="2610" height="1869"/></clipPath><clipPath id="clip5"><path d="M403.5 516.5 403.5 1082.5 2846.5 1082.5 2846.5 516.5ZM294 480 2904 480 2904 2349 294 2349Z" fill-rule="evenodd" clip-rule="evenodd"/></clipPath><clipPath id="clip6"><rect x="92" y="67" width="2374" height="536"/></clipPath><linearGradient x1="1625" y1="1082.5" x2="1625" y2="516.5" gradientUnits="userSpaceOnUse" spreadMethod="reflect" id="fill7"><stop offset="0" stop-color="#FFA2A1"/><stop offset="0.35" stop-color="#FFBEBD"/><stop offset="1" stop-color="#FFE5E5"/></linearGradient><radialGradient cx="642851" cy="606829" r="884024" gradientUnits="userSpaceOnUse" spreadMethod="pad" id="fill8" gradientTransform="matrix(0.000360892 0 0 0.000360892 1444.5 1160.5)"><stop offset="0" stop-color="#5B7CC6"/><stop offset="0.0102041" stop-color="#5A7BC5"/><stop offset="0.0204082" stop-color="#5A7BC5"/><stop offset="0.0306122" stop-color="#5A7BC5"/><stop offset="0.0408163" stop-color="#5A7BC5"/><stop offset="0.0510204" stop-color="#5A7BC5"/><stop offset="0.0612245" stop-color="#5A7BC5"/><stop offset="0.0714286" stop-color="#5A7BC5"/><stop offset="0.0816327" stop-color="#5A7BC5"/><stop offset="0.0918367" stop-color="#597AC4"/><stop offset="0.102041" stop-color="#597AC4"/><stop offset="0.112245" stop-color="#597AC4"/><stop offset="0.122449" stop-color="#597AC4"/><stop offset="0.132653" stop-color="#587AC3"/><stop offset="0.142857" stop-color="#5879C3"/><stop offset="0.153061" stop-color="#5879C3"/><stop offset="0.163265" stop-color="#5779C2"/><stop offset="0.173469" stop-color="#5778C2"/><stop offset="0.183673" stop-color="#5778C1"/><stop offset="0.193878" stop-color="#5677C1"/><stop offset="0.204082" stop-color="#5677C0"/><stop offset="0.214286" stop-color="#5577C0"/><stop offset="0.22449" stop-color="#5576BF"/><stop offset="0.234694" stop-color="#5476BF"/><stop offset="0.244898" stop-color="#5475BE"/><stop offset="0.255102" stop-color="#5375BE"/><stop offset="0.265306" stop-color="#5374BD"/><stop offset="0.27551" stop-color="#5274BD"/><stop offset="0.285714" stop-color="#5273BC"/><stop offset="0.295918" stop-color="#5173BB"/><stop offset="0.306122" stop-color="#5172BB"/><stop offset="0.316327" stop-color="#5071BA"/><stop offset="0.326531" stop-color="#4F71B9"/><stop offset="0.336735" stop-color="#4F70B9"/><stop offset="0.346939" stop-color="#4E6FB8"/><stop offset="0.357143" stop-color="#4D6FB7"/><stop offset="0.367347" stop-color="#4D6EB6"/><stop offset="0.377551" stop-color="#4C6DB6"/><stop offset="0.387755" stop-color="#4B6DB5"/><stop offset="0.397959" stop-color="#4A6CB4"/><stop offset="0.408163" stop-color="#4A6BB3"/><stop offset="0.418367" stop-color="#496AB2"/><stop offset="0.428571" stop-color="#486AB1"/><stop offset="0.438776" stop-color="#4769B0"/><stop offset="0.44898" stop-color="#4668AF"/><stop offset="0.459184" stop-color="#4567AE"/><stop offset="0.469388" stop-color="#4466AE"/><stop offset="0.479592" stop-color="#4465AD"/><stop offset="0.489796" stop-color="#4364AC"/><stop offset="0.5" stop-color="#4264AB"/><stop offset="0.510204" stop-color="#4163A9"/><stop offset="0.520408" stop-color="#4062A8"/><stop offset="0.530612" stop-color="#3F61A7"/><stop offset="0.540816" stop-color="#3E60A6"/><stop offset="0.55102" stop-color="#3D5FA5"/><stop offset="0.561224" stop-color="#3C5EA4"/><stop offset="0.571429" stop-color="#3B5DA3"/><stop offset="0.581633" stop-color="#3A5CA2"/><stop offset="0.591837" stop-color="#385BA0"/><stop offset="0.602041" stop-color="#375A9F"/><stop offset="0.612245" stop-color="#36589E"/><stop offset="0.622449" stop-color="#35579D"/><stop offset="0.632653" stop-color="#34569C"/><stop offset="0.642857" stop-color="#33559A"/><stop offset="0.653061" stop-color="#325499"/><stop offset="0.663265" stop-color="#305398"/><stop offset="0.673469" stop-color="#2F5296"/><stop offset="0.683673" stop-color="#2E5095"/><stop offset="0.693878" stop-color="#2D4F94"/><stop offset="0.704082" stop-color="#2B4E92"/><stop offset="0.714286" stop-color="#2A4D91"/><stop offset="0.72449" stop-color="#294B8F"/><stop offset="0.734694" stop-color="#274A8E"/><stop offset="0.744898" stop-color="#26498D"/><stop offset="0.755102" stop-color="#25488B"/><stop offset="0.765306" stop-color="#23468A"/><stop offset="0.77551" stop-color="#224588"/><stop offset="0.785714" stop-color="#214487"/><stop offset="0.795918" stop-color="#1F4285"/><stop offset="0.806122" stop-color="#1E4183"/><stop offset="0.816327" stop-color="#1C3F82"/><stop offset="0.826531" stop-color="#1B3E80"/><stop offset="0.836735" stop-color="#193D7F"/><stop offset="0.846939" stop-color="#183B7D"/><stop offset="0.857143" stop-color="#163A7B"/><stop offset="0.867347" stop-color="#15387A"/><stop offset="0.877551" stop-color="#133778"/><stop offset="0.887755" stop-color="#123576"/><stop offset="0.897959" stop-color="#103475"/><stop offset="0.908163" stop-color="#0F3273"/><stop offset="0.918367" stop-color="#0D3071"/><stop offset="0.928571" stop-color="#0B2F6F"/><stop offset="0.938776" stop-color="#0A2D6E"/><stop offset="0.94898" stop-color="#082C6C"/><stop offset="0.959184" stop-color="#062A6A"/><stop offset="0.969388" stop-color="#052868"/><stop offset="0.979592" stop-color="#032766"/><stop offset="0.989796" stop-color="#012564"/><stop offset="1" stop-color="#002463"/></radialGradient><clipPath id="clip9"><path d="M352.5 1650.5 352.5 2261.5 2842.5 2261.5 2842.5 1650.5ZM294 480 2904 480 2904 2349 294 2349Z" fill-rule="evenodd" clip-rule="evenodd"/></clipPath><clipPath id="clip10"><rect x="89" y="89" width="2419" height="569"/></clipPath><linearGradient x1="1597.5" y1="2261.5" x2="1597.5" y2="1650.5" gradientUnits="userSpaceOnUse" spreadMethod="reflect" id="fill11"><stop offset="0" stop-color="#9EEAFF"/><stop offset="0.35" stop-color="#BBEFFF"/><stop offset="1" stop-color="#E4F9FF"/></linearGradient></defs><g clip-path="url(#clip4)" transform="translate(-294 -480)"><g clip-path="url(#clip5)"><g filter="url(#fx0)" transform="translate(386 506)"><g><rect x="17.5001" y="17.718" width="2443" height="566" stroke="#BE4B48" stroke-width="3" stroke-linejoin="round" stroke-miterlimit="10" fill="#FF0000"/></g></g><g clip-path="url(#clip6)" filter="url(#fx1)" transform="translate(344 479)"><g><path d="M11.4126-105.872 110.968-105.872 110.968-4.09131 8.82861-4.09131 8.82861-14.8579 98.9092-14.8579 98.9092-95.3203 11.4126-95.3203ZM188.119-83.5488C174.433-89.7695 159.886-94.7461 144.478-98.4785L148.282-109.676C166.705-105.273 181.372-100.321 192.282-94.8179ZM145.626-9.54639C164.958-11.269 180.175-14.2119 191.277-18.375 220.036-29.1416 238.147-53.9287 245.612-92.7363L255.589-85.5586C251.139-64.5039 244.201-47.8037 234.774-35.458 224.438-21.8682 210.322-12.0347 192.425-5.95752 181.372-2.2251 166.753 0.645996 148.569 2.65576ZM283.494-116.279 295.409-116.279 295.409-69.5522C321.776-76.9214 343.74-85.8218 361.301-96.2534L368.192-86.1328C345.414-74.5049 321.154-65.3413 295.409-58.6421L295.409-23.2559C295.409-18.9971 296.725-16.3174 299.357-15.2168 302.803-13.8291 312.995-13.1353 329.934-13.1353 346.874-13.1353 364.483-13.9009 382.763-15.4321L382.763-3.51709C368.168-2.51221 352.138-2.00977 334.672-2.00977 314.43-2.00977 301.702-2.46436 296.486-3.37353 290.744-4.37842 286.964-6.84277 285.145-10.7666 284.045-13.1592 283.494-16.437 283.494-20.6001ZM385.921-122.452C389.175-122.452 392.261-121.495 395.18-119.581 400.3-116.184 402.86-111.446 402.86-105.369 402.86-100.775 401.185-96.7798 397.836-93.3823 394.486-90.0327 390.443-88.3579 385.705-88.3579 383.074-88.3579 380.561-88.98 378.169-90.2241 375.489-91.6118 373.312-93.5498 371.637-96.0381 369.723-98.957 368.766-102.115 368.766-105.513 368.766-108.001 369.34-110.417 370.489-112.762 373.695-119.222 378.839-122.452 385.921-122.452ZM385.777-115.131C384.246-115.131 382.739-114.748 381.255-113.982 377.81-112.116 376.087-109.245 376.087-105.369 376.087-103.503 376.614-101.78 377.666-100.201 379.58-97.1865 382.308-95.6792 385.849-95.6792 388.289-95.6792 390.443-96.5166 392.309-98.1914 394.462-100.153 395.539-102.546 395.539-105.369 395.539-108.336 394.414-110.8 392.165-112.762 390.347-114.341 388.218-115.131 385.777-115.131ZM428.38-85.415 496.209-85.415C494.822-62.8291 492.166-37.4438 488.242-9.25928L515.876-9.25928 515.876 0.717773 414.742 0.717773 414.742-9.25928 477.188-9.25928C481.016-36.3433 483.433-58.4507 484.438-75.5815L428.38-75.5815ZM536.484-64.2407 660.371-64.2407 660.371-52.8999 536.484-52.8999ZM779.847-104.221 787.815-97.3301C781.498-67.7578 770.875-44.7412 755.945-28.2803 748.002-19.5234 737.81-11.7476 725.368-4.95264 716.181 0.0717772 706.276 4.06738 695.652 7.03418L689.623-3.22998C714.841-10.312 734.197-21.3896 747.691-36.4629 735.202-47.8994 722.354-57.5176 709.147-65.3174L715.965-73.6435C730.273-65.5088 743.193-56.2017 754.725-45.7222 764.965-61.2261 771.593-77.2563 774.608-93.813L721.636-93.813C710.726-76.4429 697.567-62.9248 682.158-53.2588L674.335-61.4414C682.517-66.2744 689.934-72.1841 696.586-79.1704 708.596-91.6597 717.066-105.489 721.995-120.658L733.264-117.715 733.048-117.212C730.991-112.044 729.101-107.714 727.378-104.221ZM815.299 5.74219C813.672-8.51758 812.859-23.7583 812.859-39.98 812.859-67.7339 814.845-93.5019 818.817-117.284L830.301-116.136C826.473-94.7461 824.559-70.1504 824.559-42.3486 824.559-25.792 825.396-10.312 827.071 4.09131ZM857.217-103.503 923.611-103.503 923.611-92.4492 857.217-92.4492ZM927.918-3.22998C919.353-1.84229 909.232-1.14844 897.556-1.14844 883.057-1.14844 871.525-2.87109 862.96-6.31641 859.945-7.51269 857.265-9.21142 854.921-11.4126 850.279-15.8149 847.958-21.3418 847.958-27.9932 847.958-34.501 849.609-40.3149 852.911-45.4351L862.601-40.8413C860.495-37.5874 859.442-33.6636 859.443-29.0698 859.442-23.2319 862.433-19.0688 868.415-16.5806 874.779-13.9487 883.799-12.6328 895.475-12.6328 906.815-12.6328 917.223-13.4224 926.698-15.0015ZM1062.75 1.00488C1049.74 2.44043 1036 3.1582 1021.55 3.1582 999.157 3.1582 983.605 1.62695 974.896-1.43555 962.072-5.98144 955.66-14.1641 955.66-25.9834 955.66-32.9219 957.742-39.2861 961.905-45.0762 965.781-50.3398 970.638-54.8618 976.476-58.6421 980.256-61.0347 984.73-63.5947 989.898-66.3223 982.337-84.2187 976.499-101.015 972.384-116.71L984.012-119.796C988.893-101.661 994.181-85.439 999.875-71.1313 1016.53-78.7876 1032.84-85.104 1048.83-90.0806L1054.07-79.96C1037.41-75.1269 1020.12-68.6191 1002.17-60.4365 992.697-56.1777 985.878-52.541 981.715-49.5264 972.48-42.8271 967.862-35.2427 967.862-26.7729 967.862-19.4517 972.312-14.3315 981.213-11.4126 988.151-9.16357 1000.28-8.03906 1017.6-8.03906 1033.01-8.03906 1047.68-8.94824 1061.6-10.7666ZM1056.58-91.7314C1053.42-99.6748 1049.21-107.57 1043.95-115.418L1052.49-118.648C1057.85-111.327 1062.15-103.527 1065.41-95.2485ZM1073.95-98.1914C1070.74-106.661 1066.53-114.557 1061.32-121.878L1069.86-124.964C1075.03-117.882 1079.24-110.226 1082.49-101.996ZM1175.4-97.6172C1157.89-103.024 1139.2-107.235 1119.34-110.25L1123.51-120.227C1145.9-116.782 1164.66-112.475 1179.78-107.307ZM1097.02-75.7251C1124.34-81.7544 1144.32-84.769 1156.96-84.769 1170.64-84.769 1180.81-81.0127 1187.46-73.5 1192.44-67.8535 1194.93-60.1973 1194.93-50.5312 1194.93-29.0459 1187.51-13.877 1172.68-5.02441 1162.24 1.24414 1146.67 5.57471 1125.95 7.96728L1121.43-2.51221C1141-4.76123 1155.45-8.56543 1164.78-13.9248 1176.55-20.6719 1182.44-32.7544 1182.44-50.1724 1182.44-66.394 1173.94-74.5049 1156.96-74.5049 1146.05-74.5049 1127.19-71.227 1100.4-64.6714ZM1248.17-112.332C1252.62-103.527 1256.97-94.2676 1261.23-84.5537 1269.61-87.4726 1279.99-90.894 1292.38-94.8179 1288.32-103.814 1284.8-110.92 1281.83-116.136L1291.23-119.94C1294.82-113.863 1298.65-106.374 1302.72-97.4736 1309.04-98.8135 1314.63-99.4834 1319.52-99.4834 1328.85-99.4834 1336.17-97.1865 1341.48-92.5928 1348.47-86.5156 1351.96-78.333 1351.96-68.0449 1351.96-54.6465 1347.01-45.0044 1337.1-39.1186 1330.11-34.9556 1319.32-32.0127 1304.73-30.29L1300.06-40.4106C1313.32-41.3677 1323.44-43.9756 1330.43-48.2344 1336.65-52.0146 1339.76-58.7378 1339.76-68.4038 1339.76-74.9116 1337.94-80.1035 1334.3-83.9795 1330.76-87.7598 1325.69-89.6499 1319.08-89.6499 1315.83-89.6499 1311.69-89.1235 1306.67-88.0708 1310.06-79.0268 1312.5-71.7295 1313.99-66.1787L1304.01-61.4414C1301.62-70.0547 1298.99-78.0459 1296.12-85.415L1292.1-84.1948C1280.32-80.5581 1271.35-77.5913 1265.18-75.2944L1265.75-73.9307 1270.78-62.0874C1281.26-36.9175 1289.25-14.9058 1294.75 3.94775L1283.7 7.6084C1277.72-13.1113 1270.63-33.2808 1262.45-52.8999L1257.21-65.748 1255.56-69.6958 1254.92-71.2749C1244.87-67.5903 1235.85-64.1689 1227.86-61.0107L1224.05-71.2749 1225.49-71.8491C1232.38-74.3852 1240.11-77.1846 1248.67-80.2471L1250.82-80.9648 1249.89-82.9746C1244.87-93.9326 1240.8-102.474 1237.69-108.599ZM1371.59-73.9307 1376.26-74.7202C1405.97-79.4097 1425.76-81.7544 1435.62-81.7544 1448.39-81.7544 1458.08-78.5244 1464.69-72.0644 1471.53-65.3174 1474.95-56.2495 1474.95-44.8608 1474.95-33.3765 1470.5-23.6387 1461.6-15.6475 1451.26-6.41211 1432-0.45459 1403.82 2.2251L1400.23-8.25439C1420.47-9.97705 1435.33-13.1113 1444.8-17.6572 1448.92-19.6191 1452.46-22.1553 1455.43-25.2656 1460.79-30.96 1463.46-37.8267 1463.46-45.8657 1463.46-54.5268 1461.1-61.0586 1456.36-65.4609 1453.68-67.9492 1450.64-69.624 1447.24-70.4853 1444.37-71.251 1440.57-71.6338 1435.83-71.6338 1424.44-71.6338 1403.82-68.8823 1373.96-63.3794ZM1500.85-98.0478 1534.08-98.0478C1535.95-106.374 1537.5-114.078 1538.75-121.16L1550.52-119.653 1550.3-118.648C1548.39-109.365 1546.91-102.498 1545.85-98.0478L1595.09-98.0478 1595.09-87.7837 1543.34-87.7837C1534.01-50.2202 1523.48-18.5664 1511.76 7.17773L1500.56 2.94287C1513-25.0503 1523.34-55.2925 1531.57-87.7837L1500.85-87.7837ZM1559.63-64.9585C1576.96-67.1597 1594.35-68.2602 1611.82-68.2602 1612.96-68.2602 1615.17-68.2363 1618.42-68.1885L1619.21-57.4936C1615.81-57.5415 1613.11-57.5654 1611.1-57.5654 1594.35-57.5654 1577.7-56.6084 1561.14-54.6943ZM1624.02 3.08643C1616.89 4.13916 1608.73 4.66553 1599.54 4.66553 1584.56 4.66553 1573.22 3.39746 1565.52 0.861328 1556.91-2.00977 1552.6-7.77588 1552.6-16.437 1552.6-22.1792 1554.27-26.9883 1557.62-30.8643L1566.88-25.1221C1565.3-23.1602 1564.51-20.7676 1564.52-17.9443 1564.51-13.3027 1566.72-10.3838 1571.12-9.1875 1577.43-7.46484 1585.5-6.60352 1595.31-6.60352 1604.64-6.60352 1613.78-7.29736 1622.73-8.68506ZM1728.77-94.8179C1712.36-102.235 1693.7-107.929 1672.79-111.901L1677.31-121.304C1698.27-117.38 1717.03-111.925 1733.58-104.938ZM1652.76-40.4106C1654.15-61.1782 1656.8-79.7446 1660.73-96.1099L1671.85-93.813C1668.55-79.4575 1666.26-64.9824 1664.96-50.3877 1673.15-57.0869 1682.14-62.0156 1691.95-65.1738 1699.32-67.5664 1706.47-68.7627 1713.41-68.7627 1724.47-68.7627 1733.44-66.6094 1740.33-62.3027 1749.18-56.7041 1753.61-48.043 1753.61-36.3193 1753.61-19.4277 1745-7.68017 1727.77-1.07666 1716.67 3.18213 1701.57 5.64648 1682.48 6.31641L1678.46-4.52197C1696.5-4.56982 1710.73-6.53174 1721.17-10.4077 1728.39-13.0874 1733.53-16.6523 1736.6-21.1025 1739.42-25.1699 1740.83-30.29 1740.83-36.4629 1740.83-45.0283 1737.51-51.2251 1730.86-55.0532 1726.12-57.7329 1720.11-59.0727 1712.84-59.0727 1701.64-59.0727 1690.16-55.5557 1678.39-48.5215 1672.26-44.8848 1666.95-40.5781 1662.45-35.6016ZM1842.02-31.9409C1838.09-20.6958 1833.52-11.5083 1828.31-4.37842 1824.19 1.22021 1819.77 4.01953 1815.03 4.01953 1807.95 4.01953 1801.82-1.31592 1796.65-11.9868 1792.4-20.6958 1789.55-30.4097 1788.11-41.1284 1786.39-53.7134 1785.53-68.1167 1785.53-84.3384 1785.53-92.5688 1785.84-101.062 1786.46-109.819L1798.38-108.958C1797.85-101.158 1797.59-93.6216 1797.59-86.3481 1797.59-64.1929 1798.86-47.3013 1801.39-35.6733 1803.35-26.438 1805.87-19.5474 1808.93-15.0015 1811.23-11.5562 1813.24-9.8335 1814.96-9.8335 1816.68-9.8335 1818.79-11.6997 1821.27-15.4321 1825.1-21.0786 1828.93-29.022 1832.76-39.2622ZM1891.4-17.8008C1888.91-36.9893 1885.92-52.9717 1882.43-65.748 1878.84-78.7158 1874.05-91.3965 1868.07-103.79L1878.91-106.446C1885.8-92.9517 1891.19-79.4336 1895.06-65.8916 1898.36-54.168 1901.16-39.1186 1903.46-20.7437ZM1988.68-31.9409C1984.76-20.6958 1980.19-11.5083 1974.98-4.37842 1970.86 1.22021 1966.43 4.01953 1961.7 4.01953 1954.61 4.01953 1948.49-1.31592 1943.32-11.9868 1939.06-20.6958 1936.22-30.4097 1934.78-41.1284 1933.06-53.7134 1932.2-68.1167 1932.2-84.3384 1932.2-92.5688 1932.51-101.062 1933.13-109.819L1945.04-108.958C1944.52-101.158 1944.25-93.6216 1944.25-86.3481 1944.25-64.1929 1945.52-47.3013 1948.06-35.6733 1950.02-26.438 1952.53-19.5474 1955.6-15.0015 1957.89-11.5562 1959.9-9.8335 1961.62-9.8335 1963.35-9.8335 1965.45-11.6997 1967.94-15.4321 1971.77-21.0786 1975.6-29.022 1979.43-39.2622ZM2038.07-17.8008C2035.58-36.9893 2032.59-52.9717 2029.1-65.748 2025.51-78.7158 2020.72-91.3965 2014.74-103.79L2025.58-106.446C2032.47-92.9517 2037.85-79.4336 2041.73-65.8916 2045.03-54.168 2047.83-39.1186 2050.13-20.7437ZM2074.13-92.0185 2105.71-92.0185C2107.62-101.876 2109.34-111.59 2110.88-121.16L2122.43-119.222C2121.04-110.8 2119.35-101.732 2117.34-92.0185L2130.11-92.0185C2142.36-92.0185 2150.71-89.0518 2155.16-83.1182 2158.37-78.9072 2159.97-72.1601 2159.97-62.8769 2159.97-48.0908 2158.42-34.1421 2155.31-21.0308 2153.39-12.896 2151.07-6.8667 2148.34-2.94287 2144.95 1.93799 2140.26 4.37842 2134.27 4.37842 2126.91 4.37842 2118.94 1.98584 2110.37-2.79932L2111.88-13.853C2120.16-9.45068 2127.15-7.24951 2132.84-7.24951 2135.52-7.24951 2137.62-8.61328 2139.16-11.3408 2140.78-14.2119 2142.27-18.2793 2143.61-23.543 2146.86-35.9365 2148.49-49.2153 2148.49-63.3794 2148.49-71.562 2146.52-76.8018 2142.6-79.0986 2139.87-80.6777 2135.57-81.4673 2129.68-81.4673L2114.97-81.4673C2112.05-68.7866 2109.66-59.312 2107.79-53.0435 2101.23-31.4624 2092.93-12.2261 2082.88 4.66553L2072.47-1.07666C2086.45-24.2368 2096.78-51.0337 2103.48-81.4673L2074.13-81.4673ZM2190.84-37.8984C2183.9-61.9678 2174.47-83.1899 2162.56-101.565L2172.46-106.733C2185.28-86.6352 2195.12-65.3174 2201.96-42.7793ZM2225.82-103.503 2263.72-103.503C2267.5-109.532 2270.78-115.059 2273.55-120.083L2284.89-118.217C2282.93-114.772 2280.27-110.346 2276.92-104.938L2276.06-103.503 2328.68-103.503 2328.68-93.3823 2269.32-93.3823C2262.28-83.0942 2255.61-74.5527 2249.29-67.7578 2259-73.7871 2267.62-76.8018 2275.13-76.8018 2287.04-76.8018 2294.51-70.4136 2297.52-57.6372 2310.68-61.9917 2323.68-66.0112 2336.5-69.6958L2341.02-59.5034C2322.36-54.5747 2308.36-50.5791 2299.03-47.5166 2299.8-40.4824 2300.23-32.1802 2300.32-22.6099L2288.98-21.8921 2288.98-24.1172C2288.94-32.874 2288.74-39.4297 2288.41-43.7842 2275.54-38.999 2266.33-34.4531 2260.77-30.1465 2255.8-26.2705 2253.31-22.2988 2253.31-18.2314 2253.31-13.6855 2256.37-10.5034 2262.5-8.68506 2267.71-7.10596 2277.12-6.31641 2290.71-6.31641 2303.15-6.31641 2316.4-7.0581 2330.47-8.5415L2331.91 2.79932C2318.22 3.85205 2304.46 4.37842 2290.63 4.37842 2274.08 4.37842 2262.23 3.0625 2255.1 0.430664 2246.11-2.91894 2241.61-8.73291 2241.61-17.0112 2241.61-26.5815 2248.19-35.1709 2261.35-42.7793 2267.47-46.2725 2276.06-50.0527 2287.12-54.1201 2285.92-58.7139 2284.37-62.0156 2282.45-64.0254 2280.15-66.4658 2277.16-67.686 2273.48-67.686 2268.45-67.686 2261.68-65.4131 2253.17-60.8672 2244.84-56.4648 2236.35-50.2441 2227.69-42.2051L2220.65-50.1006C2231.13-60.1973 2239.79-69.7676 2246.63-78.8115 2248.5-81.2041 2251.71-85.7261 2256.25-92.3774L2256.97-93.3823 2225.82-93.3823Z" transform="matrix(1 0 0 1 103.735 215)"/><path d="M104.795-65.0303C116.854-57.9482 129.151-49.1196 141.688-38.5444L134.511-29.5723C127.142-36.8457 118.911-44.0952 109.819-51.3208L107.738-52.9717C108.168-49.4307 108.384-46.0571 108.384-42.8511 108.384-33.7593 107.331-25.7441 105.226-18.8057 103.886-14.3555 101.924-11.2212 99.3398-9.40283 96.8037-7.63232 92.9277-6.74707 87.7119-6.74707 83.1182-6.74707 78.5723-7.15381 74.0742-7.96728L72.4951-18.2314C77.0889-17.3223 81.8022-16.8677 86.6352-16.8677 88.9321-16.8677 90.5351-17.1309 91.4443-17.6572 92.6406-18.3271 93.5737-19.7148 94.2436-21.8203 96.3013-28.376 97.3301-36.0322 97.3301-44.7891 97.3301-46.4639 97.2583-48.2344 97.1147-50.1006 85.0561-37.6113 69.5283-27.1797 50.5312-18.8057L44.5019-27.7778C64.0732-35.0513 81.0127-45.9375 95.3203-60.4365 94.5068-63.499 93.1431-67.1118 91.229-71.2749 81.1323-62.0395 67.686-53.6177 50.8901-46.0093L44.8608-54.2637C60.3647-59.4795 74.3374-67.7817 86.7788-79.1704 84.6733-82.4243 82.209-85.5107 79.3857-88.4297 70.4853-81.9697 60.0059-76.2993 47.9473-71.4184L42.2051-79.8164C51.1055-82.9268 58.7617-86.4199 65.1738-90.2959 72.1123-94.459 79.0268-100.034 85.9175-107.02L45.5786-107.02 45.5786-116.566 138.028-116.566 138.028-107.02 99.2681-107.02C95.105-102.283 90.8462-98 86.4917-94.1719 92.3296-88.6689 97.2822-81.7305 101.35-73.3564 110.441-80.4385 118.6-88.2861 125.826-96.8994L134.224-89.0757C123.888-78.6919 114.078-70.6768 104.795-65.0303ZM36.75-17.2266C42.0615-11.7236 47.9951-7.75195 54.5508-5.31152 63.6426-1.96191 74.2656-0.287109 86.4199-0.287109L144.631-0.287109C143.244 2.67969 142.023 6.10107 140.971 9.97705L86.4199 9.97705C71.0117 9.97705 58.7617 7.89551 49.6699 3.73242 43.3535 0.813477 37.5874-3.42139 32.3716-8.97217 24.811 0.358886 17.2505 7.99121 9.68994 13.9248L3.37353 3.51709C11.4126-2.12939 18.8535-8.11084 25.6963-14.4272L25.6963-52.6128 3.66064-52.6128 3.66064-62.5898 36.75-62.5898ZM30.4336-90.2241C23.2559-100.464 16.1499-108.958 9.11572-115.705L17.2266-122.452C24.6436-115.849 31.9409-107.714 39.1186-98.0478ZM152.265-65.102 288.068-65.102 288.068-53.187 152.265-53.187ZM396.118-28.998C389.036-41.8701 383.701-54.7661 380.112-67.686 377.576-62.4702 375.112-57.9961 372.719-54.2637L365.182-63.3794C374.657-78.8833 381.619-99.4355 386.07-125.036L396.98-122.883C395.449-114.939 393.63-107.044 391.525-99.1963L435.955-99.1963 435.955-89.0757 424.399-89.0757 424.255-87.7119C422.006-65.2217 416.742-45.5308 408.464-28.6392 416.312-17.2505 426.193-6.91455 438.108 2.36865L431.361 13.207C421.121 4.88086 411.551-5.59863 402.65-18.2314 393.319-3.92383 382.313 6.9624 369.633 14.4272L362.096 5.16797C376.021-2.39258 387.362-13.7812 396.118-28.998ZM401.717-39.9082C407.555-53.4023 411.479-69.7915 413.489-89.0757L388.438-89.0757C387.386-85.8696 386.644-83.6684 386.213-82.4722 389.658-67.2554 394.826-53.0674 401.717-39.9082ZM343.506-85.1279C352.119-94.8418 359.225-105.561 364.824-117.284L373.365-111.255C367.575-100.919 361.761-92.21 355.923-85.1279L369.417-85.1279 369.417-75.438 347.525-75.438C341.639-69.3608 335.538-63.8579 329.222-58.9292L361.594-58.9292 366.187-53.0435C360.062-47.2534 353.052-41.8223 345.157-36.75L345.157-29.7876C345.826-29.8833 346.712-30.0029 347.812-30.1465 354.081-30.96 362-32.1802 371.571-33.8071L372.073-24.9785C364.369-23.3037 356.186-21.7964 347.525-20.4565L345.157-20.0977 345.157 2.94287C345.157 7.15381 344.223 10.0967 342.357 11.7715 340.778 13.1592 337.907 13.853 333.744 13.853 329.102 13.853 323.432 13.6138 316.733 13.1353L314.364 3.08643C321.063 3.9956 326.566 4.45019 330.873 4.45019 333.218 4.45019 334.39 3.22998 334.39 0.789551L334.39-18.6621 325.059-17.4419C317.116-16.437 309.244-15.5278 301.444-14.7144L298.645-24.835C310.608-25.8398 322.523-27.0361 334.39-28.4238L334.39-40.1235C338.697-42.4204 343.41-45.6982 348.53-49.957L317.02-49.957C311.421-46.2246 306.277-43.0903 301.588-40.5542L295.558-48.8086C308.383-55.46 321.063-64.3364 333.6-75.438L297.209-75.438 297.209-85.1279 325.561-85.1279 325.561-101.278 303.023-101.278 303.023-110.681 325.561-110.681 325.561-125.682 336.328-125.682 336.328-110.681 354.703-110.681 354.703-101.278 336.328-101.278 336.328-85.1279ZM460.887-84.5537 537.33-84.5537 542.642-76.2275C526.372-63.9775 512.017-52.7085 499.575-42.4204 504.456-44.813 508.906-46.0093 512.926-46.0093 516.467-46.0093 519.41-45.1958 521.754-43.5688 524.865-41.4155 526.42-38.2573 526.42-34.0942 526.42-33.3765 526.324-32.2519 526.133-30.7207 525.511-25.0742 525.2-19.6909 525.2-14.5708 525.2-11.8433 525.702-10.001 526.707-9.04394 528.286-7.56055 533.645-6.81885 542.785-6.81885 550.872-6.81885 558.911-7.32129 566.902-8.32617L567.764 2.87109C560.299 3.58887 551.733 3.94775 542.067 3.94775 531.492 3.94775 524.458 3.22998 520.965 1.79443 518.285 0.693848 516.395-0.980957 515.294-3.22998 514.385-5.09619 513.931-7.7998 513.931-11.3408 513.931-18.9014 514.242-25.0742 514.864-29.8594 514.912-30.3379 514.935-30.7925 514.935-31.2231 514.935-35.2905 512.71-37.3242 508.26-37.3242 502.805-37.3242 496.297-34.477 488.737-28.7827 479.597-21.8921 467.873-10.7905 453.566 4.52197L445.455-4.45019C471.582-30.1465 497.9-53.4263 524.41-74.2895L460.887-74.2895ZM532.593-96.6123C514.744-102.45 495.412-107.14 474.597-110.681L477.827-120.371C499.551-116.925 519.003-112.475 536.182-107.02ZM585.47-105.513C626.574-106.039 666.65-107.187 705.697-108.958L706.63-98.4785C689.978-97.9043 676.675-95.2007 666.722-90.3677 654.663-84.4819 645.882-76.084 640.38-65.1738 636.791-58.1396 634.996-50.6269 634.996-42.6357 634.996-30.5771 639.997-21.7725 649.998-16.2217 658.18-11.6758 669.689-8.37402 684.523-6.31641L682.082 5.16797C661.602 2.29687 646.959-2.67969 638.154-9.76172 628.106-17.8486 623.081-28.998 623.081-43.21 623.081-56.2256 627.938-68.2602 637.652-79.314 644.303-86.8745 653.228-92.9756 664.425-97.6172L657.534-97.3301C631.12-96.3252 607.338-95.3442 586.188-94.3872ZM749.158-112.332C753.608-103.527 757.963-94.2676 762.222-84.5537 770.596-87.4726 780.979-90.894 793.373-94.8179 789.306-103.814 785.788-110.92 782.822-116.136L792.225-119.94C795.813-113.863 799.641-106.374 803.709-97.4736 810.025-98.8135 815.624-99.4834 820.505-99.4834 829.836-99.4834 837.157-97.1865 842.469-92.5928 849.455-86.5156 852.948-78.333 852.948-68.0449 852.948-54.6465 847.995-45.0044 838.09-39.1186 831.104-34.9556 820.313-32.0127 805.719-30.29L801.053-40.4106C814.308-41.3677 824.429-43.9756 831.415-48.2344 837.636-52.0146 840.746-58.7378 840.746-68.4038 840.746-74.9116 838.928-80.1035 835.291-83.9795 831.75-87.7598 826.678-89.6499 820.074-89.6499 816.82-89.6499 812.681-89.1235 807.657-88.0708 811.054-79.0268 813.495-71.7295 814.978-66.1787L805.001-61.4414C802.608-70.0547 799.976-78.0459 797.105-85.415L793.086-84.1948C781.314-80.5581 772.342-77.5913 766.169-75.2944L766.744-73.9307 771.768-62.0874C782.247-36.9175 790.239-14.9058 795.742 3.94775L784.688 7.6084C778.706-13.1113 771.624-33.2808 763.442-52.8999L758.202-65.748 756.551-69.6958 755.905-71.2749C745.856-67.5903 736.836-64.1689 728.845-61.0107L725.041-71.2749 726.477-71.8491C733.367-74.3852 741.095-77.1846 749.661-80.2471L751.814-80.9648 750.881-82.9746C745.856-93.9326 741.789-102.474 738.679-108.599ZM885.499-114.987 961.942-114.987 967.828-106.015C942.562-89.1714 921.603-74.7681 904.951-62.8052 916.962-67.3989 929.044-69.6958 941.198-69.6958 952.635-69.6958 962.181-67.5664 969.838-63.3076 980.844-57.1348 986.346-47.3491 986.346-33.9507 986.346-19.7866 979.48-9.11572 965.746-1.93799 955.315 3.46924 942.586 6.17285 927.561 6.17285 916.842 6.17285 908.444 4.66553 902.367 1.65088 894.663-2.17725 890.811-8.03906 890.811-15.9346 890.811-21.1025 892.916-25.6006 897.127-29.4287 902.104-33.9746 908.468-36.2476 916.22-36.2476 926.412-36.2476 934.356-32.7544 940.05-25.7681 943.974-20.9351 946.677-14.4751 948.161-6.38818 965.483-11.5083 974.144-20.7436 974.144-34.0942 974.144-43.2817 970.723-50.1245 963.88-54.6226 958.042-58.4985 950.051-60.4365 939.906-60.4365 931.82-60.4365 923.302-59.4556 914.354-57.4936 906.985-55.8667 901.099-53.7612 896.697-51.1772 891.337-48.0669 885.715-43.856 879.829-38.5444L872.005-47.6602C883.92-57.7568 898.228-68.9062 914.928-81.1084 928.087-90.6787 939.452-98.5503 949.022-104.723L885.499-104.723ZM937.681-4.16309C935.05-19.2842 927.944-26.8447 916.364-26.8447 910.621-26.8447 906.458-24.8828 903.874-20.959 902.726-19.2363 902.152-17.394 902.152-15.4321 902.152-11.0776 904.999-7.89551 910.693-5.88574 915.048-4.30664 920.574-3.51709 927.274-3.51709 930.288-3.51709 933.758-3.73242 937.681-4.16309ZM1024.93-108.025 1109.63-108.025 1109.63-96.9712 1024.93-96.9712ZM1119.75-2.2251C1104.91-0.0239258 1089.48 1.07666 1073.45 1.07666 1056.89 1.07666 1043.33-0.334961 1032.75-3.1582 1027.59-4.5459 1023.04-6.81885 1019.12-9.97705 1014.19-14.0444 1011.72-19.5713 1011.72-26.5576 1011.72-35.0752 1015-42.6357 1021.56-49.2393L1030.53-43.21C1026.22-38.1855 1024.07-32.9697 1024.07-27.5625 1024.07-22.0117 1027.51-17.8726 1034.4-15.145 1041.68-12.2739 1054.14-10.8384 1071.8-10.8384 1088.26-10.8384 1103.72-11.939 1118.17-14.1401ZM1254.68 1.00488C1241.81 2.39258 1228.29 3.08643 1214.12 3.08643 1192.16 3.08643 1176.75 1.69873 1167.9-1.07666 1162.21-2.89502 1157.61-5.57471 1154.12-9.11572 1149.72-13.6616 1147.52-19.2363 1147.52-25.8398 1147.52-34.501 1150.89-42.4683 1157.64-49.7417 1160.89-53.2349 1164.34-56.1538 1167.97-58.4985 1171.75-60.8911 1176.3-63.5469 1181.61-66.4658 1174.29-83.7881 1168.5-100.536 1164.24-116.71L1175.87-119.796C1180.32-102.666 1185.56-86.4917 1191.59-71.2749 1209.1-79.1704 1228.5-86.1328 1249.8-92.1621L1253.32-81.4673C1229.92-75.3423 1207.9-67.3032 1187.28-57.3501 1177.37-52.5649 1170.24-47.6841 1165.89-42.7075 1161.63-37.731 1159.5-32.4912 1159.5-26.9883 1159.5-19.5713 1163.95-14.4272 1172.85-11.5562 1179.84-9.25928 1192.16-8.11084 1209.82-8.11084 1225.13-8.11084 1239.68-8.99609 1253.46-10.7666Z" transform="matrix(1 0 0 1 645.141 391)"/><path d="M50.9619 13.9966C42.2051 6.10107 35.0273-3.54102 29.4287-14.9297 22.5381-28.9502 19.0928-42.6118 19.0928-55.9145 19.0928-70.9878 23.4233-86.3242 32.0845-101.924 37.3481-111.303 43.6406-119.222 50.9619-125.682L61.7285-125.682C55.2685-118.313 50.1006-111.518 46.2246-105.297 36.2715-89.4106 31.2949-72.9018 31.2949-55.771 31.2949-39.5972 35.7451-23.9976 44.6455-8.97217 48.8086-1.89014 54.5029 5.76611 61.7285 13.9966ZM86.4712-115.418 99.8218-115.418 99.8218-63.8101 165.139-63.8101 165.139-115.418 178.49-115.418 178.49 3.66064 165.139 3.66064 165.139-52.3257 99.8218-52.3257 99.8218 3.66064 86.4712 3.66064ZM242.672-85.2715C254.492-85.2715 264.493-81.2519 272.675-73.2129 281.336-64.7432 285.667-53.5937 285.667-39.7646 285.667-31.6777 284.184-24.4043 281.217-17.9443 277.389-9.66601 271.575-3.39746 263.775 0.861328 257.315 4.40234 250.185 6.17285 242.385 6.17285 228.317 6.17285 217.167 0.980957 208.937-9.40283 202.477-17.5376 199.247-27.6582 199.247-39.7646 199.247-55.5557 204.75-67.7339 215.756-76.2993 223.46-82.2808 232.432-85.2715 242.672-85.2715ZM242.313-74.2178C233.557-74.2178 226.331-70.581 220.637-63.3076 215.708-57.0391 213.244-49.1196 213.244-39.5493 213.244-32.7544 214.512-26.749 217.048-21.5332 219.44-16.5088 222.814-12.561 227.168-9.68994 231.762-6.67529 236.882-5.16797 242.529-5.16797 249.372-5.16797 255.401-7.39307 260.617-11.8433 267.986-18.2075 271.67-27.4668 271.67-39.6211 271.67-49.9092 268.823-58.2832 263.129-64.7432 257.53-71.0596 250.592-74.2178 242.313-74.2178ZM294.556-83.0464 308.696-83.0464 323.339-32.1562C325.492-24.7871 327.263-18.0879 328.65-12.0586L329.081-12.0586C331.474-21.1025 333.435-27.8018 334.967-32.1562L350.83-76.8735 362.888-76.8735 378.823-32.1562C380.115-28.5195 381.909-22.3706 384.206-13.7095L384.637-12.0586 385.139-12.0586C386.383-17.7051 388.13-24.4043 390.379-32.1562L405.093-83.0464 419.233-83.0464 391.168 5.02441 379.828 5.02441 362.17-43.0664C360.304-48.1387 358.629-54.3594 357.146-61.7285L356.572-61.7285C354.897-53.7373 353.246-47.5166 351.619-43.0664L333.962 5.02441 322.621 5.02441ZM431.358 13.9966C437.77 6.62744 442.938-0.191406 446.862-6.45996 456.815-22.2988 461.791-38.7358 461.791-55.771 461.791-72.0405 457.341-87.688 448.441-102.713 444.278-109.7 438.583-117.356 431.358-125.682L442.124-125.682C450.881-117.739 458.059-108.097 463.658-96.7559 470.548-82.7353 473.994-69.0976 473.994-55.8428 473.994-40.7695 469.639-25.4331 460.93-9.8335 455.714-0.406739 449.446 7.53662 442.124 13.9966Z" transform="matrix(1 0 0 1 1033.58 567)"/></g></g></g><rect x="403.5" y="516.5" width="2443" height="566" stroke="#BE4B48" stroke-width="3.4375" stroke-linejoin="round" stroke-miterlimit="10" fill="url(#fill7)"/><text font-family="BIZ UDPGothic,BIZ UDPGothic_MSFontService,sans-serif" font-weight="400" font-size="147" transform="matrix(1 0 0 1 447.735 687)">コンピュータにどうやったらいいかを</text><text font-family="BIZ UDPGothic,BIZ UDPGothic_MSFontService,sans-serif" font-weight="400" font-size="147" transform="matrix(1 0 0 1 989.141 863)">逐一教えてやること</text><text font-family="BIZ UDPGothic,BIZ UDPGothic_MSFontService,sans-serif" font-weight="400" font-size="147" transform="matrix(1 0 0 1 1377.58 1039)">(How)</text><path d="M1444.5 1379.5 1560.5 1379.5 1560.5 1160.5 1792.5 1160.5 1792.5 1379.5 1908.5 1379.5 1676.5 1598.5Z" stroke="#385D8A" stroke-width="9.16667" stroke-miterlimit="8" fill="url(#fill8)" fill-rule="evenodd"/><g clip-path="url(#clip9)"><g filter="url(#fx2)" transform="translate(335 1640)"><g><rect x="17.4998" y="17.7177" width="2490" height="611" stroke="#46AAC5" stroke-width="3" stroke-linejoin="round" stroke-miterlimit="10" fill="#FF0000"/></g></g><g clip-path="url(#clip10)" filter="url(#fx3)" transform="translate(293 1603)"><g><path d="M127.907-105.01 127.907-0.574219C127.907 4.49805 126.448 7.99121 123.529 9.90527 121.328 11.3408 117.619 12.0586 112.403 12.0586 106.374 12.0586 99.3638 11.7715 91.3726 11.1973L88.9321-0.287109C97.6411 0.813476 105.178 1.36377 111.542 1.36377 113.887 1.36377 115.37 0.861328 115.992-0.143555 116.471-0.861328 116.71-2.17725 116.71-4.09131L116.71-105.01 44.5019-105.01 44.5019-115.274 143.77-115.274 143.77-105.01ZM34.5967-91.8032 34.5967 13.9966 23.2559 13.9966 23.2559-68.4038C23.0645-68.0688 22.7773-67.5903 22.3945-66.9683 18.71-60.3647 14.0923-53.522 8.5415-46.4399L2.94287-57.4936C16.6284-75.6772 27.3711-98.7895 35.1709-126.831L45.8657-124.103C42.5161-112.81 38.7598-102.043 34.5967-91.8032ZM100.273-83.9077 100.273-27.7778 61.8721-27.7778 61.8721-16.0063 51.4644-16.0063 51.4644-83.9077ZM61.8721-74.3613 61.8721-37.4678 89.8652-37.4678 89.8652-74.3613ZM163.319-103.503 201.217-103.503C204.998-109.532 208.276-115.059 211.051-120.083L222.392-118.217C220.43-114.772 217.774-110.346 214.424-104.938L213.563-103.503 266.176-103.503 266.176-93.3823 206.816-93.3823C199.782-83.0942 193.107-74.5527 186.79-67.7578 196.504-73.7871 205.117-76.8018 212.63-76.8018 224.545-76.8018 232.01-70.4136 235.025-57.6372 248.184-61.9917 261.175-66.0112 274-69.6958L278.522-59.5034C259.859-54.5747 245.863-50.5791 236.532-47.5166 237.298-40.4824 237.728-32.1802 237.824-22.6099L226.483-21.8921 226.483-24.1172C226.435-32.874 226.244-39.4297 225.909-43.7842 213.037-38.999 203.825-34.4531 198.275-30.1465 193.298-26.2705 190.81-22.2988 190.81-18.2314 190.81-13.6855 193.872-10.5034 199.997-8.68506 205.213-7.10596 214.616-6.31641 228.206-6.31641 240.647-6.31641 253.902-7.0581 267.97-8.5415L269.406 2.79932C255.72 3.85205 241.963 4.37842 228.134 4.37842 211.577 4.37842 199.734 3.0625 192.604 0.430664 183.608-2.91894 179.11-8.73291 179.11-17.0112 179.11-26.5815 185.69-35.1709 198.849-42.7793 204.974-46.2725 213.563-50.0527 224.617-54.1201 223.421-58.7139 221.865-62.0156 219.951-64.0254 217.654-66.4658 214.664-67.686 210.979-67.686 205.955-67.686 199.184-65.4131 190.666-60.8672 182.34-56.4648 173.846-50.2441 165.185-42.2051L158.151-50.1006C168.631-60.1973 177.292-69.7676 184.134-78.8115 186.001-81.2041 189.207-85.7261 193.753-92.3774L194.47-93.3823 163.319-93.3823ZM321.189-112.332C325.64-103.527 329.994-94.2676 334.253-84.5537 342.627-87.4726 353.011-90.894 365.404-94.8179 361.337-103.814 357.82-110.92 354.853-116.136L364.256-119.94C367.845-113.863 371.673-106.374 375.74-97.4736 382.057-98.8135 387.655-99.4834 392.536-99.4834 401.867-99.4834 409.188-97.1865 414.5-92.5928 421.486-86.5156 424.979-78.333 424.979-68.0449 424.979-54.6465 420.027-45.0044 410.122-39.1186 403.135-34.9556 392.345-32.0127 377.75-30.29L373.084-40.4106C386.339-41.3677 396.46-43.9756 403.446-48.2344 409.667-52.0146 412.777-58.7378 412.777-68.4038 412.777-74.9116 410.959-80.1035 407.322-83.9795 403.781-87.7598 398.709-89.6499 392.105-89.6499 388.852-89.6499 384.712-89.1235 379.688-88.0708 383.085-79.0268 385.526-71.7295 387.009-66.1787L377.032-61.4414C374.64-70.0547 372.008-78.0459 369.137-85.415L365.117-84.1948C353.346-80.5581 344.374-77.5913 338.201-75.2944L338.775-73.9307 343.799-62.0874C354.279-36.9175 362.27-14.9058 367.773 3.94775L356.719 7.6084C350.738-13.1113 343.656-33.2808 335.473-52.8999L330.233-65.748 328.583-69.6958 327.937-71.2749C317.888-67.5903 308.868-64.1689 300.876-61.0107L297.072-71.2749 298.508-71.8491C305.398-74.3852 313.126-77.1846 321.692-80.2471L323.845-80.9648 322.912-82.9746C317.888-93.9326 313.82-102.474 310.71-108.599ZM487.964-59.5034C483.514-51.6079 478.992-45.5308 474.398-41.272 470.379-37.5874 466.886-35.7451 463.919-35.7451 455.066-35.7451 450.64-48.9521 450.64-75.3662 450.64-88.5254 452.171-102.761 455.234-118.074L466.646-116.423C463.727-100.153 462.268-86.3721 462.268-75.0791 462.268-58.2353 463.56-49.8135 466.144-49.8135 467.005-49.8135 468.465-50.8901 470.522-53.0435 474.59-57.3501 478.107-62.542 481.074-68.6191ZM481.935-1.93799C496.434-5.95752 507.464-12.3696 515.024-21.1743 523.829-31.4145 528.231-46.727 528.231-67.1118 528.231-81.7544 526.724-98.8852 523.709-118.504L535.624-119.653C538.83-100.464 540.433-82.7593 540.433-66.5376 540.433-41.7026 534.619-23.4951 522.992-11.915 514.809-3.73242 503.229 2.89502 488.251 7.96728ZM571.005-98.0478 604.238-98.0478C606.104-106.374 607.659-114.078 608.903-121.16L620.675-119.653 620.459-118.648C618.545-109.365 617.062-102.498 616.009-98.0478L665.248-98.0478 665.248-87.7837 613.497-87.7837C604.166-50.2202 593.638-18.5664 581.915 7.17773L570.718 2.94287C583.159-25.0503 593.495-55.2925 601.725-87.7837L571.005-87.7837ZM629.79-64.9585C647.113-67.1597 664.507-68.2602 681.972-68.2602 683.121-68.2602 685.322-68.2363 688.576-68.1885L689.366-57.4936C685.968-57.5415 683.264-57.5654 681.255-57.5654 664.507-57.5654 647.854-56.6084 631.298-54.6943ZM694.175 3.08643C687.045 4.13916 678.886 4.66553 669.699 4.66553 654.721 4.66553 643.38 3.39746 635.676 0.861328 627.063-2.00977 622.756-7.77588 622.756-16.437 622.756-22.1792 624.431-26.9883 627.781-30.8643L637.04-25.1221C635.461-23.1602 634.671-20.7676 634.671-17.9443 634.671-13.3027 636.872-10.3838 641.275-9.1875 647.591-7.46484 655.654-6.60352 665.464-6.60352 674.795-6.60352 683.934-7.29736 692.883-8.68506ZM776.966-31.9409C773.042-20.6958 768.472-11.5083 763.256-4.37842 759.141 1.22021 754.715 4.01953 749.978 4.01953 742.896 4.01953 736.771-1.31592 731.603-11.9868 727.344-20.6958 724.497-30.4097 723.061-41.1284 721.339-53.7134 720.477-68.1167 720.477-84.3384 720.477-92.5688 720.788-101.062 721.41-109.819L733.325-108.958C732.799-101.158 732.536-93.6216 732.536-86.3481 732.536-64.1929 733.804-47.3013 736.34-35.6733 738.302-26.438 740.814-19.5474 743.877-15.0015 746.173-11.5562 748.183-9.8335 749.906-9.8335 751.629-9.8335 753.734-11.6997 756.222-15.4321 760.05-21.0786 763.879-29.022 767.707-39.2622ZM826.349-17.8008C823.86-36.9893 820.87-52.9717 817.377-65.748 813.788-78.7158 809.003-91.3965 803.021-103.79L813.859-106.446C820.75-92.9517 826.133-79.4336 830.009-65.8916 833.311-54.168 836.11-39.1186 838.407-20.7437ZM862.406-92.0185 893.989-92.0185C895.903-101.876 897.625-111.59 899.156-121.16L910.713-119.222C909.325-110.8 907.626-101.732 905.616-92.0185L918.393-92.0185C930.643-92.0185 938.993-89.0518 943.443-83.1182 946.649-78.9072 948.252-72.1601 948.252-62.8769 948.252-48.0908 946.697-34.1421 943.587-21.0308 941.673-12.896 939.352-6.8667 936.624-2.94287 933.227 1.93799 928.537 4.37842 922.556 4.37842 915.187 4.37842 907.219 1.98584 898.654-2.79932L900.161-13.853C908.44-9.45068 915.426-7.24951 921.12-7.24951 923.8-7.24951 925.906-8.61328 927.437-11.3408 929.064-14.2119 930.547-18.2793 931.887-23.543 935.141-35.9365 936.768-49.2153 936.768-63.3794 936.768-71.562 934.806-76.8018 930.882-79.0986 928.155-80.6777 923.848-81.4673 917.962-81.4673L903.248-81.4673C900.329-68.7866 897.936-59.312 896.07-53.0435 889.514-31.4624 881.212-12.2261 871.163 4.66553L860.756-1.07666C874.728-24.2368 885.064-51.0337 891.763-81.4673L862.406-81.4673ZM979.116-37.8984C972.178-61.9678 962.751-83.1899 950.836-101.565L960.741-106.733C973.566-86.6352 983.399-65.3174 990.242-42.7793ZM1120.04 1.00488C1107.17 2.39258 1093.65 3.08643 1079.49 3.08643 1057.53 3.08643 1042.12 1.69873 1033.26-1.07666 1027.57-2.89502 1022.98-5.57471 1019.48-9.11572 1015.08-13.6616 1012.88-19.2363 1012.88-25.8398 1012.88-34.501 1016.25-42.4683 1023-49.7417 1026.25-53.2349 1029.7-56.1538 1033.34-58.4985 1037.12-60.8911 1041.66-63.5469 1046.97-66.4658 1039.65-83.7881 1033.86-100.536 1029.6-116.71L1041.23-119.796C1045.68-102.666 1050.92-86.4917 1056.95-71.2749 1074.46-79.1704 1093.87-86.1328 1115.16-92.1621L1118.68-81.4673C1095.28-75.3423 1073.27-67.3032 1052.64-57.3501 1042.74-52.5649 1035.61-47.6841 1031.25-42.7075 1027-37.731 1024.87-32.4912 1024.87-26.9883 1024.87-19.5713 1029.32-14.4272 1038.22-11.5562 1045.2-9.25928 1057.53-8.11084 1075.18-8.11084 1090.5-8.11084 1105.04-8.99609 1118.82-10.7666ZM1207.23-31.9409C1203.3-20.6958 1198.73-11.5083 1193.52-4.37842 1189.4 1.22021 1184.98 4.01953 1180.24 4.01953 1173.16 4.01953 1167.03-1.31592 1161.86-11.9868 1157.6-20.6958 1154.76-30.4097 1153.32-41.1284 1151.6-53.7134 1150.74-68.1167 1150.74-84.3384 1150.74-92.5688 1151.05-101.062 1151.67-109.819L1163.59-108.958C1163.06-101.158 1162.8-93.6216 1162.8-86.3481 1162.8-64.1929 1164.06-47.3013 1166.6-35.6733 1168.56-26.438 1171.07-19.5474 1174.14-15.0015 1176.43-11.5562 1178.44-9.8335 1180.17-9.8335 1181.89-9.8335 1183.99-11.6997 1186.48-15.4321 1190.31-21.0786 1194.14-29.022 1197.97-39.2622ZM1256.61-17.8008C1254.12-36.9893 1251.13-52.9717 1247.64-65.748 1244.05-78.7158 1239.26-91.3965 1233.28-103.79L1244.12-106.446C1251.01-92.9517 1256.39-79.4336 1260.27-65.8916 1263.57-54.168 1266.37-39.1186 1268.67-20.7437ZM1373.63-97.6172C1356.12-103.024 1337.43-107.235 1317.57-110.25L1321.74-120.227C1344.13-116.782 1362.89-112.475 1378.01-107.307ZM1295.25-75.7251C1322.57-81.7544 1342.55-84.769 1355.18-84.769 1368.87-84.769 1379.04-81.0127 1385.69-73.5 1390.67-67.8535 1393.16-60.1973 1393.16-50.5312 1393.16-29.0459 1385.74-13.877 1370.9-5.02441 1360.47 1.24414 1344.9 5.57471 1324.18 7.96728L1319.66-2.51221C1339.23-4.76123 1353.68-8.56543 1363.01-13.9248 1374.78-20.6719 1380.67-32.7544 1380.67-50.1724 1380.67-66.394 1372.17-74.5049 1355.18-74.5049 1344.27-74.5049 1325.42-71.227 1298.62-64.6714Z" transform="matrix(1 0 0 1 341.207 265)"/><path d="M95.4316-35.4741C102.104-30.4106 108.775-23.5898 115.447-15.0117L99.7207-3.84228C94.2998-12.3013 87.7173-19.9858 79.9731-26.896L92.8403-35.4741 27.2534-35.4741 27.2534-89.7129 155.925-89.7129 155.925-35.4741ZM46.8223-76.7563 46.8223-68.9824 136.178-68.9824 136.178-76.7563ZM46.8223-57.2769 46.8223-48.4307 136.178-48.4307 136.178-57.2769ZM100.614-142.879 164.861-142.879 164.861-128.225 139.663-128.225C137.518-122.745 135.016-117.532 132.157-112.588L178.443-112.588 178.443-97.7549 4.55713-97.7549 4.55713-112.588 49.8603-112.588C47.1201-119.081 44.4394-124.293 41.8184-128.225L18.1392-128.225 18.1392-142.879 81.0454-142.879 81.0454-156.461 100.614-156.461ZM63.6211-128.225C66.1826-123.936 68.5059-118.724 70.5908-112.588L112.141-112.588C114.524-116.817 116.788-122.03 118.932-128.225ZM4.91455 3.48486C13.0757-6.2251 19.2412-17.5137 23.4111-30.3809L41.729-23.9473C37.2017-8.16113 30.6787 4.94434 22.1602 15.3691ZM54.3281-28.5044 73.7183-28.5044 73.7183-8.57812C73.7183-5.71875 74.4033-3.93164 75.7734-3.2168 78.2754-1.90625 85.1558-1.25098 96.4145-1.25098 106.72-1.25098 113.69-1.66797 117.324-2.50195 120.004-3.09766 121.553-4.79541 121.97-7.59521 122.506-10.9907 122.894-15.1011 123.132-19.9263L141.807-14.833C141.748-7.26758 141.062-1.10205 139.752 3.66357 138.263 9.44189 133.676 12.8672 125.991 13.9395 118.068 15.0117 107.346 15.5479 93.8232 15.5479 76.6074 15.5479 65.9145 14.6841 61.7446 12.9565 56.8003 10.8716 54.3281 6.49316 54.3281-0.178711ZM164.503 10.4546C156.759-3.18701 148.449-15.2202 139.573-25.645L155.747-34.7593C165.516-24.394 174.094-13.2246 181.481-1.25098ZM279.837-38.0654C267.089-27.2832 251.273-18.437 232.389-11.5269L221.041-25.2876C236.41-30.2915 250.141-37.4697 262.234-46.8223L259.107-48.3413C247.55-53.8813 234.921-59.4809 221.22-65.1401L229.441-78.7222C244.81-73.1226 259.196-67.2549 272.599-61.1191L276.084-59.5107C291.156-75.3564 302.504-96.0273 310.129-121.523L327.91-115.983C319.213-90.0107 307.627-68.4165 293.151-51.2007 293.747-50.9028 294.313-50.605 294.849-50.3071 303.248-46.1372 314.269-40.0312 327.91-31.9893L317.098-16.9775C305.661-23.9473 293.241-30.9766 279.837-38.0654ZM240.074-76.8457C235.785-91.0234 230.9-102.997 225.42-112.767L242.219-119.468C247.997-109.222 253.06-97.3379 257.409-83.8154ZM271.527-83.9941C267.119-97.7549 262.175-109.758 256.694-120.004L272.778-126.438C279.629-114.524 284.692-102.759 287.969-91.1426ZM354.092-148.062 354.092 17.4243 334.165 17.4243 334.165 8.04199 215.501 8.04199 215.501 17.4243 195.754 17.4243 195.754-148.062ZM215.501-131.442 215.501-9.20361 334.165-9.20361 334.165-131.442Z" transform="matrix(1 0 0 1 1756.88 265)"/><path d="M16.6523-103.503 54.5508-103.503C58.331-109.532 61.6089-115.059 64.3843-120.083L75.7251-118.217C73.7632-114.772 71.1074-110.346 67.7578-104.938L66.8965-103.503 119.509-103.503 119.509-93.3823 60.1494-93.3823C53.1152-83.0942 46.4399-74.5527 40.1235-67.7578 49.8374-73.7871 58.4507-76.8018 65.9634-76.8018 77.8784-76.8018 85.3433-70.4136 88.3579-57.6372 101.517-61.9917 114.509-66.0112 127.333-69.6958L131.855-59.5034C113.193-54.5747 99.1963-50.5791 89.8652-47.5166 90.6309-40.4824 91.0615-32.1802 91.1572-22.6099L79.8164-21.8921 79.8164-24.1172C79.7685-32.874 79.5771-39.4297 79.2422-43.7842 66.3701-38.999 57.1587-34.4531 51.6079-30.1465 46.6313-26.2705 44.1431-22.2988 44.1431-18.2314 44.1431-13.6855 47.2056-10.5034 53.3306-8.68506 58.5464-7.10596 67.9492-6.31641 81.5391-6.31641 93.9805-6.31641 107.235-7.0581 121.304-8.5415L122.739 2.79932C109.054 3.85205 95.2964 4.37842 81.4673 4.37842 64.9106 4.37842 53.0674 3.0625 45.9375 0.430664 36.9414-2.91894 32.4434-8.73291 32.4434-17.0112 32.4434-26.5815 39.0229-35.1709 52.1821-42.7793 58.3071-46.2725 66.8965-50.0527 77.9502-54.1201 76.7539-58.7139 75.1987-62.0156 73.2847-64.0254 70.9878-66.4658 67.9971-67.686 64.3125-67.686 59.2881-67.686 52.5171-65.4131 43.9995-60.8672 35.6733-56.4648 27.1797-50.2441 18.5186-42.2051L11.4844-50.1006C21.9639-60.1973 30.625-69.7676 37.4678-78.8115 39.334-81.2041 42.54-85.7261 47.0859-92.3774L47.8037-93.3823 16.6523-93.3823Z" transform="matrix(1 0 0 1 2123.55 265)"/><path d="M78.9551-123.17 78.9551-109.102C78.9551-92.2578 81.2519-77.4477 85.8457-64.6714 90.0566-52.9477 96.1338-42.0615 104.077-32.0127 114.413-18.9492 127.405-8.13476 143.052 0.430664L135.874 11.6279C115.777-0.287109 99.8423-15.8149 88.0708-34.9556 81.8979-45.0522 77.1846-56.5127 73.9307-69.3369 70.3896-52.6367 65.102-38.5444 58.0679-27.0601 48.354-11.1255 33.3525 1.96191 13.0635 12.2021L4.7373 2.08154C30.7207-9.16357 48.5933-27.4429 58.355-52.7563 63.9536-67.2554 66.7529-85.7739 66.7529-108.312L66.7529-123.17ZM155.639-92.0185 187.221-92.0185C189.135-101.876 190.858-111.59 192.389-121.16L203.945-119.222C202.557-110.8 200.859-101.732 198.849-92.0185L210.405-92.0185C222.655-92.0185 231.029-89.0518 235.527-83.1182 238.685-78.9072 240.264-72.1601 240.264-62.8769 240.264-48.0908 238.709-34.1421 235.599-21.0308 233.685-12.8003 231.292-6.67529 228.421-2.65576 225.071 2.03369 220.478 4.37842 214.64 4.37842 207.271 4.37842 199.303 1.98584 190.738-2.79932L192.173-13.853C200.5-9.45068 207.51-7.24951 213.204-7.24951 215.836-7.24951 217.87-8.49365 219.305-10.9819 221.124-14.0923 222.822-19.0449 224.402-25.8398 227.32-38.042 228.78-50.5791 228.78-63.4512 228.78-71.6338 226.842-76.8496 222.966-79.0986 220.191-80.6777 215.86-81.4673 209.974-81.4673L196.48-81.4673C193.561-68.7866 191.169-59.312 189.302-53.0435 182.747-31.4624 174.444-12.2261 164.396 4.66553L153.988-1.07666C167.961-24.2368 178.297-51.0337 184.996-81.4673L155.639-81.4673ZM273.067-27.9214C267.037-48.689 258.161-68.0449 246.437-85.9893L256.414-90.7266C269.191-70.4853 278.522-51.1772 284.407-32.8022ZM263.664-92.0185C260.601-99.8184 256.342-107.762 250.887-115.849L259.716-119.222C264.836-111.805 269.143-103.958 272.636-95.6792ZM281.608-98.4785C277.78-107.618 273.497-115.562 268.76-122.309L277.301-125.395C282.613-118.457 286.872-110.752 290.078-102.283ZM329.653-120.227 341.137-120.227 341.137-80.2471C356.402-94.8418 371.834-102.139 387.433-102.139 400.018-102.139 410.043-97.7847 417.508-89.0757 420.331-85.7261 422.748-81.8022 424.758-77.3042 427.82-70.3657 429.351-63.2119 429.351-55.8428 429.351-35.4102 423.322-21.0547 411.263-12.7764 402.842-6.93848 390.496-2.63184 374.226 0.143555L368.915-10.3359C384.706-12.5371 396.429-16.437 404.086-22.0356 409.684-26.1509 413.441-31.6538 415.355-38.5444 416.647-43.2339 417.293-49.0239 417.293-55.9145 417.293-65.8198 414.493-74.4331 408.895-81.7544 403.87-88.3101 396.669-91.5879 387.29-91.5879 377.863-91.5879 369.25-88.8843 361.45-83.477 354.846-78.8833 348.076-72.7822 341.137-65.1738L341.137 7.03418 329.653 7.03418 329.653-52.3257C324.915-46.2964 317.259-36.0083 306.684-21.4614L304.674-18.6621 298.932-31.5103C309.938-43.7124 320.178-56.5845 329.653-70.1265L329.653-84.8408 303.023-84.8408 303.023-95.105 329.653-95.105ZM449.334-92.0185 480.916-92.0185C482.83-101.876 484.552-111.59 486.084-121.16L497.64-119.222C496.252-110.8 494.553-101.732 492.544-92.0185L505.32-92.0185C517.57-92.0185 525.92-89.0518 530.37-83.1182 533.576-78.9072 535.179-72.1601 535.179-62.8769 535.179-48.0908 533.624-34.1421 530.514-21.0308 528.6-12.896 526.279-6.8667 523.551-2.94287 520.154 1.93799 515.464 4.37842 509.483 4.37842 502.114 4.37842 494.147 1.98584 485.581-2.79932L487.089-13.853C495.367-9.45068 502.353-7.24951 508.047-7.24951 510.727-7.24951 512.833-8.61328 514.364-11.3408 515.991-14.2119 517.474-18.2793 518.814-23.543 522.068-35.9365 523.695-49.2153 523.695-63.3794 523.695-71.562 521.733-76.8018 517.809-79.0986 515.082-80.6777 510.775-81.4673 504.889-81.4673L490.175-81.4673C487.256-68.7866 484.863-59.312 482.997-53.0435 476.442-31.4624 468.139-12.2261 458.09 4.66553L447.683-1.07666C461.655-24.2368 471.991-51.0337 478.691-81.4673L449.334-81.4673ZM566.044-37.8984C559.105-61.9678 549.678-83.1899 537.763-101.565L547.669-106.733C560.493-86.6352 570.326-65.3174 577.169-42.7793ZM639.787-59.5034C635.337-51.6079 630.815-45.5308 626.221-41.272 622.202-37.5874 618.708-35.7451 615.742-35.7451 606.889-35.7451 602.463-48.9521 602.463-75.3662 602.463-88.5254 603.994-102.761 607.057-118.074L618.469-116.423C615.55-100.153 614.091-86.3721 614.091-75.0791 614.091-58.2353 615.383-49.8135 617.967-49.8135 618.828-49.8135 620.288-50.8901 622.345-53.0435 626.413-57.3501 629.93-62.542 632.896-68.6191ZM633.758-1.93799C648.257-5.95752 659.286-12.3696 666.847-21.1743 675.652-31.4145 680.054-46.727 680.054-67.1118 680.054-81.7544 678.547-98.8852 675.532-118.504L687.447-119.653C690.653-100.464 692.256-82.7593 692.256-66.5376 692.256-41.7026 686.442-23.4951 674.814-11.915 666.632-3.73242 655.052 2.89502 640.074 7.96728ZM744.002-112.332C748.452-103.527 752.807-94.2676 757.065-84.5537 765.439-87.4726 775.823-90.894 788.217-94.8179 784.149-103.814 780.632-110.92 777.665-116.136L787.068-119.94C790.657-113.863 794.485-106.374 798.553-97.4736 804.869-98.8135 810.468-99.4834 815.349-99.4834 824.68-99.4834 832.001-97.1865 837.312-92.5928 844.299-86.5156 847.792-78.333 847.792-68.0449 847.792-54.6465 842.839-45.0044 832.934-39.1186 825.948-34.9556 815.157-32.0127 800.562-30.29L795.897-40.4106C809.152-41.3677 819.272-43.9756 826.259-48.2344 832.479-52.0146 835.59-58.7378 835.59-68.4038 835.59-74.9116 833.771-80.1035 830.135-83.9795 826.594-87.7598 821.521-89.6499 814.918-89.6499 811.664-89.6499 807.525-89.1235 802.5-88.0708 805.898-79.0268 808.338-71.7295 809.822-66.1787L799.845-61.4414C797.452-70.0547 794.82-78.0459 791.949-85.415L787.93-84.1948C776.158-80.5581 767.186-77.5913 761.013-75.2944L761.587-73.9307 766.612-62.0874C777.091-36.9175 785.082-14.9058 790.585 3.94775L779.532 7.6084C773.55-13.1113 766.468-33.2808 758.286-52.8999L753.046-65.748 751.395-69.6958 750.749-71.2749C740.7-67.5903 731.68-64.1689 723.689-61.0107L719.885-71.2749 721.32-71.8491C728.211-74.3852 735.939-77.1846 744.504-80.2471L746.658-80.9648 745.725-82.9746C740.7-93.9326 736.633-102.474 733.522-108.599ZM934.678-121.16 946.306-121.16 946.306-100.416 988.511-100.416 988.511-90.2959 946.306-90.2959 946.306-57.4936C947.694-53.1392 948.388-48.4976 948.388-43.5688 948.388-27.2036 945.038-15.1211 938.339-7.32129 930.874 1.43555 919.031 7.6084 902.809 11.1973L896.78 2.08154C909.748-0.45459 919.486-4.52197 925.993-10.1206 931.401-14.8101 934.942-21.1982 936.616-29.2852 931.448-22.873 925.108-19.667 917.595-19.667 909.796-19.667 903.455-22.1074 898.574-26.9883 893.55-31.9648 891.038-39.1186 891.038-48.4497 891.038-54.2876 892.593-59.7905 895.703-64.9585 896.948-66.9683 898.431-68.7627 900.154-70.3418 905.513-75.2705 911.853-77.7349 919.175-77.7349 924.917-77.7349 930.085-76.084 934.678-72.7822L934.678-90.2959 862.973-90.2959 862.973-100.416 934.678-100.416ZM934.966-49.2393 934.966-51.6079C934.966-55.1968 934.032-58.3789 932.166-61.1543 929.056-65.748 924.773-68.0449 919.318-68.0449 916.064-68.0449 913.05-67.0161 910.274-64.9585 905.106-61.1304 902.522-55.6514 902.522-48.5215 902.522-43.1143 903.742-38.7358 906.183-35.3862 909.054-31.3667 913.313-29.3569 918.959-29.3569 924.797-29.3569 929.247-32.1323 932.31-37.6831 934.08-40.9849 934.966-44.8369 934.966-49.2393ZM1066.29-31.9409C1062.36-20.6958 1057.8-11.5083 1052.58-4.37842 1048.46 1.22021 1044.04 4.01953 1039.3 4.01953 1032.22 4.01953 1026.09-1.31592 1020.93-11.9868 1016.67-20.6958 1013.82-30.4097 1012.38-41.1284 1010.66-53.7134 1009.8-68.1167 1009.8-84.3384 1009.8-92.5688 1010.11-101.062 1010.73-109.819L1022.65-108.958C1022.12-101.158 1021.86-93.6216 1021.86-86.3481 1021.86-64.1929 1023.13-47.3013 1025.66-35.6733 1027.62-26.438 1030.14-19.5474 1033.2-15.0015 1035.5-11.5562 1037.51-9.8335 1039.23-9.8335 1040.95-9.8335 1043.06-11.6997 1045.55-15.4321 1049.37-21.0786 1053.2-29.022 1057.03-39.2622ZM1115.67-17.8008C1113.18-36.9893 1110.19-52.9717 1106.7-65.748 1103.11-78.7158 1098.33-91.3965 1092.34-103.79L1103.18-106.446C1110.07-92.9517 1115.46-79.4336 1119.33-65.8916 1122.63-54.168 1125.43-39.1186 1127.73-20.7437ZM1207.14-120.945 1218.48-120.945 1218.48-92.3057 1266-92.3057 1266-82.0415 1218.48-82.0415 1218.48-40.1235C1235.8-33.9507 1252.55-25.2417 1268.73-13.9966L1262.27-3.08643C1248.44-13.8052 1233.84-22.4902 1218.48-29.1416L1218.48-26.1987C1218.48-15.0015 1215.4-6.62744 1209.22-1.07666 1204.01 3.61279 1196.52 5.95752 1186.76 5.95752 1179.1 5.95752 1172.5 4.56982 1166.95 1.79443 1157.47-2.89502 1152.73-9.80957 1152.73-18.9492 1152.73-28.0889 1157.23-34.9316 1166.23-39.4775 1172.93-42.8271 1181.52-44.5019 1192-44.5019 1196.69-44.5019 1201.73-44.0234 1207.14-43.0664ZM1207.14-32.8022C1200.35-33.9985 1194.6-34.5967 1189.91-34.5967 1182.26-34.5967 1176.06-33.209 1171.32-30.4336 1166.68-27.7539 1164.36-24.2129 1164.36-19.8105 1164.36-15.2168 1166.49-11.4604 1170.75-8.5415 1174.82-5.71826 1179.94-4.30664 1186.11-4.30664 1195.44-4.30664 1201.59-7.41699 1204.56-13.6377 1206.28-17.2266 1207.14-22.2031 1207.14-28.5674ZM1373.63-97.6172C1356.12-103.024 1337.43-107.235 1317.57-110.25L1321.74-120.227C1344.13-116.782 1362.89-112.475 1378.01-107.307ZM1295.25-75.7251C1322.57-81.7544 1342.55-84.769 1355.18-84.769 1368.87-84.769 1379.04-81.0127 1385.69-73.5 1390.67-67.8535 1393.16-60.1973 1393.16-50.5312 1393.16-29.0459 1385.74-13.877 1370.9-5.02441 1360.47 1.24414 1344.9 5.57471 1324.18 7.96728L1319.66-2.51221C1339.23-4.76123 1353.68-8.56543 1363.01-13.9248 1374.78-20.6719 1380.67-32.7544 1380.67-50.1724 1380.67-66.394 1372.17-74.5049 1355.18-74.5049 1344.27-74.5049 1325.42-71.227 1298.62-64.6714ZM1432.9 5.74219C1431.28-8.51758 1430.46-23.7583 1430.46-39.98 1430.46-67.7339 1432.45-93.5019 1436.42-117.284L1447.91-116.136C1444.08-94.7461 1442.16-70.1504 1442.16-42.3486 1442.16-25.792 1443-10.312 1444.68 4.09131ZM1474.82-103.503 1541.22-103.503 1541.22-92.4492 1474.82-92.4492ZM1545.52-3.22998C1536.96-1.84229 1526.84-1.14844 1515.16-1.14844 1500.66-1.14844 1489.13-2.87109 1480.56-6.31641 1477.55-7.51269 1474.87-9.21142 1472.52-11.4126 1467.88-15.8149 1465.56-21.3418 1465.56-27.9932 1465.56-34.501 1467.21-40.3149 1470.51-45.4351L1480.2-40.8413C1478.1-37.5874 1477.05-33.6636 1477.05-29.0698 1477.05-23.2319 1480.04-19.0688 1486.02-16.5806 1492.38-13.9487 1501.4-12.6328 1513.08-12.6328 1524.42-12.6328 1534.83-13.4224 1544.3-15.0015ZM1630.61-55.6992C1625.11-49.5264 1618.53-43.8081 1610.88-38.5444L1610.88-2.00977C1622.46-4.30664 1636.02-7.89551 1651.57-12.7764L1652.58-3.08643C1632.48 3.94775 1610.37 9.73779 1586.26 14.2837L1582.16 3.51709C1589.29 2.36865 1595.04 1.33984 1599.39 0.430664L1599.39-31.582C1590.16-26.5098 1579.46-21.7725 1567.31-17.3701L1560.99-26.9165C1584.82-34.0942 1603.65-43.6885 1617.48-55.6992L1561.42-55.6992 1561.42-64.9585 1624.94-64.9585 1624.94-79.0986 1576.71-79.0986 1576.71-88.5015 1624.94-88.5015 1624.94-101.278 1568.81-101.278 1568.81-110.824 1624.94-110.824 1624.94-125.682 1636.28-125.682 1636.28-110.824 1693.56-110.824 1693.56-101.278 1636.28-101.278 1636.28-88.5015 1685.67-88.5015 1685.67-79.0986 1636.28-79.0986 1636.28-64.9585 1701.1-64.9585 1701.1-55.6992 1641.24-55.6992C1644.83-46.6074 1649.35-38.5923 1654.8-31.6538 1665.14-38.688 1674.25-46.416 1682.15-54.8379L1691.98-47.3013C1684.33-40.3628 1674.06-32.7544 1661.19-24.4761 1670.91-14.8579 1684.26-6.79492 1701.24-0.287109L1694.14 10.2642C1681.55 4.71338 1671.38-1.14844 1663.63-7.32129 1648.56-19.2363 1637.55-35.3623 1630.61-55.6992ZM1815.75-36.4629 1815.75-3.51709C1815.75-1.65088 1816.3-0.45459 1817.4 0.0717773 1818.46 0.550293 1820.83 0.789551 1824.51 0.789551 1828.77 0.789551 1831.52 0.598144 1832.76 0.215332 1834.34-0.263184 1835.37-1.93799 1835.85-4.80908 1836.57-8.82861 1837.02-14.3315 1837.22-21.3179L1847.69-17.083C1847.31-7.03418 1846.52-0.143555 1845.33 3.58887 1844.03 7.56055 1841.11 9.95312 1836.57 10.7666 1833.84 11.2451 1829.68 11.4844 1824.08 11.4844 1815.66 11.4844 1810.3 10.7427 1808 9.25928 1805.8 7.82373 1804.7 5.33545 1804.7 1.79443L1804.7-36.4629 1792.5-36.4629C1791.97-22.6338 1788.6-11.7476 1782.38-3.8042 1776.44 3.7085 1766.16 9.73779 1751.51 14.2837L1745.2 5.31152C1759.26 0.90918 1768.81-4.5459 1773.84-11.0537 1778.24-16.6523 1780.8-25.1221 1781.52-36.4629L1767.38-36.4629 1767.38-119.222 1836.35-119.222 1836.35-36.4629ZM1778.43-109.676 1778.43-94.3872 1825.3-94.3872 1825.3-109.676ZM1778.43-85.7021 1778.43-70.4136 1825.3-70.4136 1825.3-85.7021ZM1778.43-61.585 1778.43-45.7222 1825.3-45.7222 1825.3-61.585ZM1741.82-107.164 1741.82-73.6435 1758.91-73.6435 1758.91-63.5229 1741.82-63.5229 1741.82-27.9932C1749.43-30.5771 1756.44-33.2568 1762.85-36.0322L1764-26.0552C1749.6-19.1167 1731.65-12.4893 1710.17-6.17285L1706.08-17.5137C1714.16-19.4756 1722.3-21.7246 1730.48-24.2607L1730.48-63.5229 1710.96-63.5229 1710.96-73.6435 1730.48-73.6435 1730.48-107.164 1709.16-107.164 1709.16-117.428 1760.77-117.428 1760.77-107.164ZM1930.41-121.16 1942.04-121.16 1942.04-100.416 1984.24-100.416 1984.24-90.2959 1942.04-90.2959 1942.04-57.4936C1943.42-53.1392 1944.12-48.4976 1944.12-43.5688 1944.12-27.2036 1940.77-15.1211 1934.07-7.32129 1926.6 1.43555 1914.76 7.6084 1898.54 11.1973L1892.51 2.08154C1905.48-0.45459 1915.21-4.52197 1921.72-10.1206 1927.13-14.8101 1930.67-21.1982 1932.35-29.2852 1927.18-22.873 1920.84-19.667 1913.32-19.667 1905.52-19.667 1899.18-22.1074 1894.3-26.9883 1889.28-31.9648 1886.77-39.1186 1886.77-48.4497 1886.77-54.2876 1888.32-59.7905 1891.43-64.9585 1892.68-66.9683 1894.16-68.7627 1895.88-70.3418 1901.24-75.2705 1907.58-77.7349 1914.9-77.7349 1920.65-77.7349 1925.81-76.084 1930.41-72.7822L1930.41-90.2959 1858.7-90.2959 1858.7-100.416 1930.41-100.416ZM1930.69-49.2393 1930.69-51.6079C1930.69-55.1968 1929.76-58.3789 1927.9-61.1543 1924.79-65.748 1920.5-68.0449 1915.05-68.0449 1911.79-68.0449 1908.78-67.0161 1906-64.9585 1900.84-61.1304 1898.25-55.6514 1898.25-48.5215 1898.25-43.1143 1899.47-38.7358 1901.91-35.3862 1904.78-31.3667 1909.04-29.3569 1914.69-29.3569 1920.53-29.3569 1924.98-32.1323 1928.04-37.6831 1929.81-40.9849 1930.69-44.8369 1930.69-49.2393ZM2015.29-114.987 2091.73-114.987 2097.62-106.015C2072.35-89.1714 2051.39-74.7681 2034.74-62.8052 2046.75-67.3989 2058.84-69.6958 2070.99-69.6958 2082.43-69.6958 2091.97-67.5664 2099.63-63.3076 2110.64-57.1348 2116.14-47.3491 2116.14-33.9507 2116.14-19.7866 2109.27-9.11572 2095.54-1.93799 2085.11 3.46924 2072.38 6.17285 2057.35 6.17285 2046.63 6.17285 2038.24 4.66553 2032.16 1.65088 2024.45-2.17725 2020.6-8.03906 2020.6-15.9346 2020.6-21.1025 2022.71-25.6006 2026.92-29.4287 2031.9-33.9746 2038.26-36.2476 2046.01-36.2476 2056.2-36.2476 2064.15-32.7544 2069.84-25.7681 2073.77-20.9351 2076.47-14.4751 2077.95-6.38818 2095.27-11.5083 2103.94-20.7436 2103.94-34.0942 2103.94-43.2817 2100.51-50.1245 2093.67-54.6226 2087.83-58.4985 2079.84-60.4365 2069.7-60.4365 2061.61-60.4365 2053.09-59.4556 2044.15-57.4936 2036.78-55.8667 2030.89-53.7612 2026.49-51.1772 2021.13-48.0669 2015.51-43.856 2009.62-38.5444L2001.8-47.6602C2013.71-57.7568 2028.02-68.9062 2044.72-81.1084 2057.88-90.6787 2069.24-98.5503 2078.81-104.723L2015.29-104.723ZM2067.47-4.16309C2064.84-19.2842 2057.74-26.8447 2046.16-26.8447 2040.41-26.8447 2036.25-24.8828 2033.67-20.959 2032.52-19.2363 2031.94-17.394 2031.94-15.4321 2031.94-11.0776 2034.79-7.89551 2040.48-5.88574 2044.84-4.30664 2050.37-3.51709 2057.07-3.51709 2060.08-3.51709 2063.55-3.73242 2067.47-4.16309ZM2154.72-108.025 2239.42-108.025 2239.42-96.9712 2154.72-96.9712ZM2249.54-2.2251C2234.7-0.0239258 2219.27 1.07666 2203.24 1.07666 2186.69 1.07666 2173.12-0.334961 2162.54-3.1582 2157.38-4.5459 2152.83-6.81885 2148.91-9.97705 2143.98-14.0444 2141.51-19.5713 2141.51-26.5576 2141.51-35.0752 2144.79-42.6357 2151.35-49.2393L2160.32-43.21C2156.01-38.1855 2153.86-32.9697 2153.86-27.5625 2153.86-22.0117 2157.3-17.8726 2164.2-15.145 2171.47-12.2739 2183.93-10.8384 2201.59-10.8384 2218.05-10.8384 2233.51-11.939 2247.96-14.1401ZM2384.47 1.00488C2371.6 2.39258 2358.08 3.08643 2343.92 3.08643 2321.95 3.08643 2306.54 1.69873 2297.69-1.07666 2292-2.89502 2287.4-5.57471 2283.91-9.11572 2279.51-13.6616 2277.31-19.2363 2277.31-25.8398 2277.31-34.501 2280.68-42.4683 2287.43-49.7417 2290.68-53.2349 2294.13-56.1538 2297.76-58.4985 2301.54-60.8911 2306.09-63.5469 2311.4-66.4658 2304.08-83.7881 2298.29-100.536 2294.03-116.71L2305.66-119.796C2310.11-102.666 2315.35-86.4917 2321.38-71.2749 2338.89-79.1704 2358.3-86.1328 2379.59-92.1621L2383.11-81.4673C2359.71-75.3423 2337.7-67.3032 2317.07-57.3501 2307.17-52.5649 2300.04-47.6841 2295.68-42.7075 2291.42-37.731 2289.29-32.4912 2289.29-26.9883 2289.29-19.5713 2293.74-14.4272 2302.64-11.5562 2309.63-9.25928 2321.95-8.11084 2339.61-8.11084 2354.92-8.11084 2369.47-8.99609 2383.25-10.7666Z" transform="matrix(1 0 0 1 104.318 446)"/><path d="M50.9619 13.9966C42.2051 6.10107 35.0273-3.54102 29.4287-14.9297 22.5381-28.9502 19.0928-42.6118 19.0928-55.9145 19.0928-70.9878 23.4233-86.3242 32.0845-101.924 37.3481-111.303 43.6406-119.222 50.9619-125.682L61.7285-125.682C55.2685-118.313 50.1006-111.518 46.2246-105.297 36.2715-89.4106 31.2949-72.9018 31.2949-55.771 31.2949-39.5972 35.7451-23.9976 44.6455-8.97217 48.8086-1.89014 54.5029 5.76611 61.7285 13.9966ZM215.814-115.418 184.017 5.23975 172.317 5.23975 150.855-60.5801C148.032-69.0976 145.903-77.8784 144.467-86.9224L143.893-86.9224C142.41-77.687 140.304-68.9062 137.577-60.5801L116.115 5.23975 104.344 5.23975 72.6182-115.418 86.9018-115.418 103.913-46.9424C106.019-38.5684 108.315-28.376 110.804-16.3652L111.45-16.3652C113.316-25.3613 115.9-35.147 119.202-45.7222L138.007-105.872 150.353-105.872 169.23-45.7222C172.389-35.5776 174.973-25.792 176.982-16.3652L177.557-16.3652C179.614-26.3184 181.935-36.5107 184.519-46.9424L201.53-115.418ZM230.13-122.021 243.48-122.021 243.48-67.6143C247.452-72.9736 252.094-77.1367 257.405-80.1035 263.004-83.166 268.674-84.6973 274.416-84.6973 285.47-84.6973 293.581-80.9888 298.749-73.5718 302.577-68.1167 304.491-60.6518 304.491-51.1772L304.491 3.66064 290.997 3.66064 290.997-49.5264C290.997-56.8955 289.801-62.3984 287.408-66.0351 284.346-70.7246 279.369-73.0693 272.478-73.0693 267.789-73.0693 263.171-71.7056 258.625-68.978 252.07-65.0063 247.021-59.1684 243.48-51.4644L243.48 3.66064 230.13 3.66064ZM387.376-51.1772 387.376-53.9766C387.376-60.8672 385.486-66.0112 381.706-69.4087 378.26-72.519 372.949-74.0742 365.771-74.0742 355.244-74.0742 345.578-70.7007 336.773-63.9536L330.887-73.5C341.128-81.2519 352.827-85.1279 365.986-85.1279 377.949-85.1279 386.969-81.8979 393.047-75.438 398.071-70.0786 400.583-62.7095 400.583-53.3306L400.583-22.1792C400.583-11.1733 402.306-2.56006 405.751 3.66064L392.831 3.66064C390.965-0.311035 389.577-5.40723 388.668-11.6279L388.237-11.6279C385.51-6.74707 381.49-2.58398 376.179 0.861328 370.772 4.40234 364.096 6.17285 356.153 6.17285 347.875 6.17285 341.008 3.73242 335.553-1.14844 329.811-6.31641 326.94-12.896 326.94-20.8872 326.94-30.4575 331.127-37.9224 339.501-43.2817 347.779-48.5454 360.388-51.1772 377.327-51.1772ZM387.376-40.9849 378.117-40.9849C353.234-40.9849 340.793-34.3335 340.793-21.0308 340.793-16.7241 342.132-13.1353 344.812-10.2642 348.066-6.8667 352.54-5.16797 358.234-5.16797 365.604-5.16797 372.064-7.51269 377.614-12.2021 384.122-17.6572 387.376-24.1172 387.376-31.582ZM449.104-109.676 449.104-83.0464 475.949-83.0464 475.949-72.7822 449.104-72.7822 449.104-18.8057C449.104-14.6904 449.463-11.7476 450.18-9.97705 451.425-6.8667 453.937-5.31152 457.717-5.31152 462.694-5.31152 467.694-7.03418 472.719-10.4795L476.451-0.933105C470.087 3.32568 463.124 5.45508 455.564 5.45508 442.548 5.45508 436.04-2.05762 436.04-17.083L436.04-72.7822 415.584-72.7822 415.584-83.0464 436.04-83.0464 436.04-102.785ZM492.66 13.9966C499.072 6.62744 504.24-0.191406 508.164-6.45996 518.117-22.2988 523.094-38.7358 523.094-55.771 523.094-72.0405 518.643-87.688 509.743-102.713 505.58-109.7 499.885-117.356 492.66-125.682L503.427-125.682C512.183-117.739 519.361-108.097 524.96-96.7559 531.85-82.7353 535.296-69.0976 535.296-55.8428 535.296-40.7695 530.941-25.4331 522.232-9.8335 517.016-0.406739 510.748 7.53662 503.427 13.9966Z" transform="matrix(1 0 0 1 1026.99 622)"/></g></g></g><rect x="352.5" y="1650.5" width="2490" height="611" stroke="#46AAC5" stroke-width="3.4375" stroke-linejoin="round" stroke-miterlimit="10" fill="url(#fill11)"/><text font-family="BIZ UDPGothic,BIZ UDPGothic_MSFontService,sans-serif" font-weight="400" font-size="147" transform="matrix(1 0 0 1 634.207 1860)">何をやりたいかという</text><text font-family="BIZ UDPGothic,BIZ UDPGothic_MSFontService,sans-serif" font-weight="700" font-size="183" transform="matrix(1 0 0 1 2049.88 1860)">意図</text><text font-family="BIZ UDPGothic,BIZ UDPGothic_MSFontService,sans-serif" font-weight="400" font-size="147" transform="matrix(1 0 0 1 2416.55 1860)">を</text><text font-family="BIZ UDPGothic,BIZ UDPGothic_MSFontService,sans-serif" font-weight="400" font-size="147" transform="matrix(1 0 0 1 397.318 2042)">人がわかりやすいように表現すること</text><text font-family="BIZ UDPGothic,BIZ UDPGothic_MSFontService,sans-serif" font-weight="400" font-size="147" transform="matrix(1 0 0 1 1319.99 2218)">(What)</text><text font-family="BIZ UDPGothic,BIZ UDPGothic_MSFontService,sans-serif" font-weight="700" font-size="92" transform="matrix(1 0 0 1 2043.94 1403)">パラダイム</text><text font-family="BIZ UDPGothic,BIZ UDPGothic_MSFontService,sans-serif" font-weight="700" font-size="92" transform="matrix(1 0 0 1 2499.41 1403)">シフト</text></g></svg>