<svg width="3166" height="883" xmlns="http://www.w3.org/2000/svg" xmlns:xlink="http://www.w3.org/1999/xlink" xml:space="preserve" overflow="hidden"><defs><filter id="fx0" x="-10%" y="-10%" width="120%" height="120%" filterUnits="userSpaceOnUse" primitiveUnits="userSpaceOnUse"><feComponentTransfer color-interpolation-filters="sRGB"><feFuncR type="discrete" tableValues="0 0"/><feFuncG type="discrete" tableValues="0 0"/><feFuncB type="discrete" tableValues="0 0"/><feFuncA type="linear" slope="0.380392" intercept="0"/></feComponentTransfer><feGaussianBlur stdDeviation="4.8119 4.8119"/></filter><filter id="fx1" x="-10%" y="-10%" width="120%" height="120%" filterUnits="userSpaceOnUse" primitiveUnits="userSpaceOnUse"><feComponentTransfer color-interpolation-filters="sRGB"><feFuncR type="discrete" tableValues="0 0"/><feFuncG type="discrete" tableValues="0 0"/><feFuncB type="discrete" tableValues="0 0"/><feFuncA type="linear" slope="0.380392" intercept="0"/></feComponentTransfer><feGaussianBlur stdDeviation="4.8119 4.8119"/></filter><filter id="fx2" x="-10%" y="-10%" width="120%" height="120%" filterUnits="userSpaceOnUse" primitiveUnits="userSpaceOnUse"><feComponentTransfer color-interpolation-filters="sRGB"><feFuncR type="discrete" tableValues="0 0"/><feFuncG type="discrete" tableValues="0 0"/><feFuncB type="discrete" tableValues="0 0"/><feFuncA type="linear" slope="0.380392" intercept="0"/></feComponentTransfer><feGaussianBlur stdDeviation="4.8119 4.8119"/></filter><clipPath id="clip3"><rect x="103" y="874" width="3166" height="883"/></clipPath><clipPath id="clip4"><path d="M2140.5 954.5 2140.5 1649.5 3197.5 1649.5 3197.5 954.5ZM103 874 3269 874 3269 1757 103 1757Z" fill-rule="evenodd" clip-rule="evenodd"/></clipPath><linearGradient x1="2669" y1="1649.5" x2="2669" y2="954.5" gradientUnits="userSpaceOnUse" spreadMethod="reflect" id="fill5"><stop offset="0" stop-color="#FFBE86"/><stop offset="0.35" stop-color="#FFD0AA"/><stop offset="1" stop-color="#FFEBDB"/></linearGradient><clipPath id="clip6"><path d="M169.5 1134.5 169.5 1649.5 1407.5 1649.5 1407.5 1134.5ZM103 874 3269 874 3269 1757 103 1757Z" fill-rule="evenodd" clip-rule="evenodd"/></clipPath><clipPath id="clip7"><rect x="79" y="64" width="688" height="152"/></clipPath><linearGradient x1="788.5" y1="1649.5" x2="788.5" y2="1134.5" gradientUnits="userSpaceOnUse" spreadMethod="reflect" id="fill8"><stop offset="0" stop-color="#DAFDA7"/><stop offset="0.35" stop-color="#E4FDC2"/><stop offset="1" stop-color="#F5FFE6"/></linearGradient></defs><g clip-path="url(#clip3)" transform="translate(-103 -874)"><rect x="103" y="874" width="3166" height="883" fill="#FDEADA"/><g clip-path="url(#clip4)"><g filter="url(#fx0)" transform="translate(2123 944)"><g><rect x="17.5" y="17.718" width="1057" height="695" stroke="#F69240" stroke-width="3" stroke-linejoin="round" stroke-miterlimit="10" fill="#FF0000"/></g></g></g><rect x="2140.5" y="954.5" width="1057" height="695" stroke="#F69240" stroke-width="3.4375" stroke-linejoin="round" stroke-miterlimit="10" fill="url(#fill5)"/><text font-family="BIZ UDPGothic,BIZ UDPGothic_MSFontService,sans-serif" font-weight="700" font-size="110" transform="matrix(1 0 0 1 2462.68 1111)">システム</text><text font-family="BIZ UDPGothic,BIZ UDPGothic_MSFontService,sans-serif" font-weight="700" font-size="83" transform="matrix(1 0 0 1 2246.69 1214)">&lt;&lt;</text><text font-family="BIZ UDPGothic,BIZ UDPGothic_MSFontService,sans-serif" font-weight="700" font-size="83" transform="matrix(1 0 0 1 2385.34 1214)">サービス提供者</text><text font-family="BIZ UDPGothic,BIZ UDPGothic_MSFontService,sans-serif" font-weight="700" font-size="83" transform="matrix(1 0 0 1 2951.38 1214)">&gt;&gt;</text><path d="M2140 1288 3197.03 1288.57" stroke="#000000" stroke-width="10.3125" stroke-linejoin="round" stroke-miterlimit="10" fill="none" fill-rule="evenodd"/><text font-family="BIZ UDPGothic,BIZ UDPGothic_MSFontService,sans-serif" font-weight="700" font-size="92" transform="matrix(1 0 0 1 2284.51 1442)">提供するサービス</text><g clip-path="url(#clip6)"><g filter="url(#fx1)" transform="translate(152 1124)"><g><rect x="17.5" y="17.7178" width="1238" height="515" stroke="#98B954" stroke-width="3" stroke-linejoin="round" stroke-miterlimit="10" fill="#FF0000"/></g></g><g clip-path="url(#clip7)" filter="url(#fx2)" transform="translate(365 1267)"><g><path d="M93.8125-88.0625 101.5-81.5625C96.9583-56.1042 88.4375-36.6042 75.9375-23.0625 64.5208-10.6458 48-1.125 26.375 5.5L20.5-3.5C41.5417-9.375 57.6458-18.6042 68.8125-31.1875 79.3958-43.1458 86.5417-59.0833 90.25-79L44.5625-79C36.3958-66.25 26.4583-55.8333 14.75-47.75L7.4375-55.0625C15.7708-60.6042 22.75-66.7083 28.375-73.375 35.5417-81.9167 41.1458-92.0625 45.1875-103.812L55.0625-101C53.3542-96.25 51.5625-91.9375 49.6875-88.0625ZM129.219-98.4375 208.344-98.4375 208.344-89.375 129.219-89.375ZM120.281-68.125 220.219-68.125C218.385-49.8333 214.24-35.6042 207.781-25.4375 202.031-16.4375 194.01-9.47917 183.719-4.5625 174.427-0.145833 162.844 3.14583 148.969 5.3125L144.344-3.875C164.677-6.45833 179.656-11.8958 189.281-20.1875 199.615-29.1042 205.802-42.0625 207.844-59.0625L120.281-59.0625ZM284.135 5 284.135-61.0625C270.719-51.9792 255.573-44.2917 238.698-38L233.073-47C251.281-53.1667 267.24-61.125 280.948-70.875 294.948-80.875 306.969-91.8125 317.01-103.687L325.76-98.1875C316.469-87.7708 306.01-77.9167 294.385-68.625L294.385 5ZM336.417-94.1875 433.854-94.1875 440.604-88.4375C437.021-74.5208 430.417-63.625 420.792-55.75 415.5-51.4167 408.875-47.7292 400.917-44.6875L394.917-52.375C406.792-56.25 416-62.625 422.542-71.5 425.542-75.625 427.688-80.1667 428.979-85.125L336.417-85.125ZM378.042-70.9375 388.104-70.9375 388.104-60.4375C388.104-44.0625 386.5-31.6875 383.292-23.3125 379-12.1875 370.167-3.14583 356.792 3.8125L349.354-3.8125C358.521-8.22917 365.333-13.875 369.792-20.75 372.833-25.375 374.875-30.0833 375.917-34.875 377.333-41.4167 378.042-49.9375 378.042-60.4375ZM496.365-72.75C484.448-78.1667 471.781-82.5 458.365-85.75L461.677-95.5C477.719-91.6667 490.49-87.3542 499.99-82.5625ZM459.365-8.3125C476.198-9.8125 489.448-12.375 499.115-16 524.156-25.375 539.927-46.9583 546.427-80.75L555.115-74.5C551.24-56.1667 545.198-41.625 536.99-30.875 527.99-19.0417 515.698-10.4792 500.115-5.1875 490.49-1.9375 477.76 0.5625 461.927 2.3125ZM582.365-103.812 592.865-103.812 592.865-68.25C619.073-60.125 639.51-52.3125 654.177-44.8125L648.927-35.3125C632.385-43.7708 613.698-51.4167 592.865-58.25L592.865 5.75 582.365 5.75Z" transform="matrix(1 0 0 1 92.8382 190)"/></g></g></g><rect x="169.5" y="1134.5" width="1238" height="515" stroke="#98B954" stroke-width="3.4375" stroke-linejoin="round" stroke-miterlimit="10" fill="url(#fill8)"/><text font-family="BIZ UDPGothic,BIZ UDPGothic_MSFontService,sans-serif" font-weight="400" font-size="128" transform="matrix(1 0 0 1 457.838 1449)">クライアント</text><path d="M1407 1384.13 2126.36 1384.13 2126.36 1397.88 1407 1397.88ZM2088.57 1361 2140 1391 2088.57 1421C2085.29 1422.91 2081.08 1421.81 2079.17 1418.53 2077.25 1415.25 2078.36 1411.04 2081.64 1409.12L2122.89 1385.06 2122.89 1396.94 2081.64 1372.88C2078.36 1370.96 2077.25 1366.75 2079.17 1363.47 2081.08 1360.19 2085.29 1359.09 2088.57 1361Z"/><text font-family="BIZ UDPGothic,BIZ UDPGothic_MSFontService,sans-serif" font-weight="400" font-size="73" transform="matrix(1 0 0 1 1527.08 1511)">&lt;&lt;uses&gt;&gt;</text></g></svg>