<?xml version="1.0" encoding="UTF-8"?>
<svg width="800" height="200" viewBox="0 0 800 200" xmlns="http://www.w3.org/2000/svg">
  <defs>
    <linearGradient id="bg10" x1="0%" y1="0%" x2="100%" y2="100%">
      <stop offset="0%" style="stop-color:#0c4a6e;stop-opacity:1" />
      <stop offset="100%" style="stop-color:#0369a1;stop-opacity:1" />
    </linearGradient>
    <pattern id="futurePattern" patternUnits="userSpaceOnUse" width="40" height="40">
      <rect width="40" height="40" fill="none"/>
      <circle cx="20" cy="20" r="1" fill="#06b6d4" opacity="0.3"/>
      <circle cx="10" cy="10" r="0.5" fill="#3b82f6" opacity="0.4"/>
      <circle cx="30" cy="30" r="0.5" fill="#8b5cf6" opacity="0.4"/>
      <circle cx="30" cy="10" r="0.5" fill="#10b981" opacity="0.3"/>
      <circle cx="10" cy="30" r="0.5" fill="#f59e0b" opacity="0.3"/>
    </pattern>
  </defs>
  
  <!-- Background -->
  <rect width="800" height="200" fill="url(#bg10)"/>
  <rect width="800" height="200" fill="url(#futurePattern)"/>
  
  <!-- Technology evolution timeline -->
  <g transform="translate(50, 120)">
    <!-- Timeline base -->
    <line x1="0" y1="30" x2="700" y2="30" stroke="#06b6d4" stroke-width="4"/>
    
    <!-- Evolution milestones -->
    <!-- C# versions -->
    <circle cx="100" cy="30" r="8" fill="#239b56"/>
    <text x="100" y="50" text-anchor="middle" fill="#86efac" font-size="8">C# 1.0</text>
    
    <circle cx="200" cy="30" r="8" fill="#3b82f6"/>
    <text x="200" y="50" text-anchor="middle" fill="#93c5fd" font-size="8">C# 3.0</text>
    
    <circle cx="300" cy="30" r="8" fill="#8b5cf6"/>
    <text x="300" y="50" text-anchor="middle" fill="#c4b5fd" font-size="8">C# 5.0</text>
    
    <circle cx="400" cy="30" r="8" fill="#f59e0b"/>
    <text x="400" y="50" text-anchor="middle" fill="#fcd34d" font-size="8">C# 8.0</text>
    
    <circle cx="500" cy="30" r="8" fill="#ef4444"/>
    <text x="500" y="50" text-anchor="middle" fill="#fca5a5" font-size="8">C# 11</text>
    
    <circle cx="600" cy="30" r="8" fill="#06b6d4"/>
    <text x="600" y="50" text-anchor="middle" fill="#67e8f9" font-size="8">Future</text>
    
    <!-- Technology indicators above timeline -->
    <rect x="95" y="10" width="10" height="15" fill="#239b56" rx="2" opacity="0.7"/>
    <rect x="190" y="5" width="20" height="20" fill="#3b82f6" rx="2" opacity="0.7"/>
    <rect x="280" y="0" width="40" height="25" fill="#8b5cf6" rx="2" opacity="0.7"/>
    <rect x="360" y="-5" width="80" height="30" fill="#f59e0b" rx="2" opacity="0.7"/>
    <rect x="460" y="-10" width="80" height="35" fill="#ef4444" rx="2" opacity="0.7"/>
    <rect x="560" y="-15" width="80" height="40" fill="#06b6d4" rx="2" opacity="0.7"/>
  </g>
  
  <!-- Cloud architecture -->
  <g transform="translate(100, 20)">
    <!-- Cloud layers -->
    <ellipse cx="100" cy="20" rx="80" ry="15" fill="#e0f2fe" stroke="#0891b2" stroke-width="2" opacity="0.8"/>
    <ellipse cx="100" cy="35" rx="70" ry="12" fill="#f0f9ff" stroke="#0284c7" stroke-width="2" opacity="0.7"/>
    <ellipse cx="100" cy="50" rx="60" ry="10" fill="#f8fafc" stroke="#0369a1" stroke-width="2" opacity="0.6"/>
    
    <!-- Microservices -->
    <circle cx="70" cy="35" r="6" fill="#10b981"/>
    <circle cx="100" cy="30" r="6" fill="#3b82f6"/>
    <circle cx="130" cy="35" r="6" fill="#8b5cf6"/>
    <circle cx="85" cy="50" r="4" fill="#f59e0b"/>
    <circle cx="115" cy="50" r="4" fill="#ef4444"/>
    
    <!-- Service connections -->
    <line x1="76" y1="35" x2="94" y2="30" stroke="#06b6d4" stroke-width="1" opacity="0.5"/>
    <line x1="106" y1="30" x2="124" y2="35" stroke="#06b6d4" stroke-width="1" opacity="0.5"/>
    <line x1="85" y1="44" x2="85" y2="46" stroke="#06b6d4" stroke-width="1" opacity="0.5"/>
    <line x1="115" y1="44" x2="115" y2="46" stroke="#06b6d4" stroke-width="1" opacity="0.5"/>
  </g>
  
  <!-- DSL (Domain Specific Language) visualization -->
  <g transform="translate(350, 20)">
    <!-- DSL construction -->
    <rect x="0" y="0" width="120" height="60" fill="#1e293b" rx="6" stroke="#0891b2" stroke-width="2"/>
    <text x="60" y="15" text-anchor="middle" fill="#67e8f9" font-size="10" font-weight="bold">DSL Builder</text>
    
    <!-- Fluent interface building blocks -->
    <rect x="10" y="25" width="25" height="12" fill="#10b981" rx="2"/>
    <text x="22" y="33" text-anchor="middle" fill="white" font-size="6">When</text>
    
    <rect x="40" y="25" width="25" height="12" fill="#3b82f6" rx="2"/>
    <text x="52" y="33" text-anchor="middle" fill="white" font-size="6">Then</text>
    
    <rect x="70" y="25" width="25" height="12" fill="#8b5cf6" rx="2"/>
    <text x="82" y="33" text-anchor="middle" fill="white" font-size="6">And</text>
    
    <rect x="100" y="25" width="15" height="12" fill="#f59e0b" rx="2"/>
    <text x="107" y="33" text-anchor="middle" fill="white" font-size="6">Do</text>
    
    <!-- Chain connections -->
    <line x1="35" y1="31" x2="40" y2="31" stroke="#06b6d4" stroke-width="2"/>
    <line x1="65" y1="31" x2="70" y2="31" stroke="#06b6d4" stroke-width="2"/>
    <line x1="95" y1="31" x2="100" y2="31" stroke="#06b6d4" stroke-width="2"/>
    
    <!-- Natural language output -->
    <rect x="10" y="45" width="100" height="8" fill="#064e3b" rx="2"/>
    <rect x="15" y="47" width="60" height="4" fill="#10b981" rx="1"/>
  </g>
  
  <!-- Parallel/Concurrent programming -->
  <g transform="translate(550, 20)">
    <!-- Parallel execution paths -->
    <g>
      <!-- Main thread -->
      <line x1="0" y1="30" x2="80" y2="30" stroke="#06b6d4" stroke-width="4"/>
      
      <!-- Parallel tasks -->
      <line x1="20" y1="10" x2="60" y2="10" stroke="#10b981" stroke-width="3"/>
      <line x1="20" y1="20" x2="70" y2="20" stroke="#3b82f6" stroke-width="3"/>
      <line x1="20" y1="40" x2="65" y2="40" stroke="#8b5cf6" stroke-width="3"/>
      <line x1="20" y1="50" x2="55" y2="50" stroke="#f59e0b" stroke-width="3"/>
      
      <!-- Fork points -->
      <circle cx="20" cy="30" r="3" fill="#ef4444"/>
      
      <!-- Join points -->
      <circle cx="80" cy="30" r="3" fill="#10b981"/>
      
      <!-- Task sync lines -->
      <line x1="60" y1="10" x2="75" y2="25" stroke="#06b6d4" stroke-width="1" opacity="0.5"/>
      <line x1="70" y1="20" x2="78" y2="28" stroke="#06b6d4" stroke-width="1" opacity="0.5"/>
      <line x1="65" y1="40" x2="78" y2="32" stroke="#06b6d4" stroke-width="1" opacity="0.5"/>
      <line x1="55" y1="50" x2="75" y2="35" stroke="#06b6d4" stroke-width="1" opacity="0.5"/>
    </g>
  </g>
  
  <!-- AI/ML Integration -->
  <g transform="translate(650, 80)">
    <!-- Neural network representation -->
    <g opacity="0.8">
      <!-- Input layer -->
      <circle cx="10" cy="10" r="4" fill="#3b82f6"/>
      <circle cx="10" cy="25" r="4" fill="#3b82f6"/>
      <circle cx="10" cy="40" r="4" fill="#3b82f6"/>
      
      <!-- Hidden layer -->
      <circle cx="35" cy="5" r="4" fill="#10b981"/>
      <circle cx="35" cy="20" r="4" fill="#10b981"/>
      <circle cx="35" cy="35" r="4" fill="#10b981"/>
      <circle cx="35" cy="50" r="4" fill="#10b981"/>
      
      <!-- Output layer -->
      <circle cx="60" cy="15" r="4" fill="#f59e0b"/>
      <circle cx="60" cy="35" r="4" fill="#f59e0b"/>
      
      <!-- Connections -->
      <line x1="14" y1="10" x2="31" y2="5" stroke="#06b6d4" stroke-width="1" opacity="0.4"/>
      <line x1="14" y1="10" x2="31" y2="20" stroke="#06b6d4" stroke-width="1" opacity="0.4"/>
      <line x1="14" y1="25" x2="31" y2="20" stroke="#06b6d4" stroke-width="1" opacity="0.4"/>
      <line x1="14" y1="25" x2="31" y2="35" stroke="#06b6d4" stroke-width="1" opacity="0.4"/>
      <line x1="39" y1="20" x2="56" y2="15" stroke="#06b6d4" stroke-width="1" opacity="0.4"/>
      <line x1="39" y1="35" x2="56" y2="35" stroke="#06b6d4" stroke-width="1" opacity="0.4"/>
    </g>
  </g>
  
  <!-- Containerization and DevOps -->
  <g transform="translate(480, 80)">
    <!-- Container representation -->
    <rect x="0" y="0" width="50" height="40" fill="#2563eb" rx="4" stroke="#3b82f6" stroke-width="2" opacity="0.8"/>
    <rect x="5" y="5" width="40" height="8" fill="#1e40af" rx="2"/>
    <text x="25" y="12" text-anchor="middle" fill="white" font-size="6">App</text>
    
    <rect x="5" y="18" width="40" height="8" fill="#1d4ed8" rx="2"/>
    <text x="25" y="25" text-anchor="middle" fill="white" font-size="6">Runtime</text>
    
    <rect x="5" y="31" width="40" height="6" fill="#1e3a8a" rx="2"/>
    <text x="25" y="36" text-anchor="middle" fill="white" font-size="5">OS</text>
    
    <!-- Orchestration -->
    <g transform="translate(60, 0)">
      <rect x="0" y="0" width="20" height="15" fill="#10b981" rx="2" opacity="0.7"/>
      <rect x="0" y="20" width="20" height="15" fill="#10b981" rx="2" opacity="0.7"/>
      
      <!-- Load balancer -->
      <circle cx="35" cy="20" r="8" fill="#f59e0b"/>
      <text x="35" y="24" text-anchor="middle" fill="white" font-size="6">LB</text>
      
      <!-- Connections -->
      <line x1="20" y1="7" x2="27" y2="15" stroke="#06b6d4" stroke-width="1"/>
      <line x1="20" y1="27" x2="27" y2="25" stroke="#06b6d4" stroke-width="1"/>
    </g>
  </g>
  
  <!-- Future technology indicators -->
  <g transform="translate(300, 80)">
    <!-- Quantum computing -->
    <circle cx="20" cy="20" r="15" fill="none" stroke="#8b5cf6" stroke-width="2" stroke-dasharray="3,2"/>
    <circle cx="20" cy="20" r="8" fill="#8b5cf6" opacity="0.3"/>
    <circle cx="20" cy="20" r="3" fill="#8b5cf6"/>
    <text x="20" y="45" text-anchor="middle" fill="#c4b5fd" font-size="8">Quantum</text>
    
    <!-- Edge computing -->
    <g transform="translate(60, 0)">
      <polygon points="10,5 25,5 30,15 25,25 10,25 5,15" fill="#06b6d4" opacity="0.6"/>
      <circle cx="17.5" cy="15" r="3" fill="#0891b2"/>
      <text x="17.5" y="45" text-anchor="middle" fill="#67e8f9" font-size="8">Edge</text>
    </g>
    
    <!-- Blockchain -->
    <g transform="translate(120, 0)">
      <rect x="5" y="10" width="10" height="10" fill="#10b981" rx="2"/>
      <rect x="15" y="10" width="10" height="10" fill="#059669" rx="2"/>
      <rect x="25" y="10" width="10" height="10" fill="#047857" rx="2"/>
      <line x1="15" y1="15" x2="15" y2="15" stroke="#ffffff" stroke-width="2"/>
      <line x1="25" y1="15" x2="25" y2="15" stroke="#ffffff" stroke-width="2"/>
      <text x="20" y="45" text-anchor="middle" fill="#86efac" font-size="8">Chain</text>
    </g>
  </g>
  
  <!-- Innovation arrows -->
  <g>
    <!-- Future direction arrows -->
    <path d="M650 100 Q680 90 710 100" stroke="#06b6d4" stroke-width="2" fill="none" marker-end="url(#futureArrow)"/>
    <path d="M500 140 Q550 130 600 140" stroke="#8b5cf6" stroke-width="2" fill="none" marker-end="url(#futureArrow)"/>
    <path d="M300 160 Q400 150 500 160" stroke="#10b981" stroke-width="2" fill="none" marker-end="url(#futureArrow)"/>
  </g>
  
  <!-- Arrow marker definition -->
  <defs>
    <marker id="futureArrow" markerWidth="10" markerHeight="7" refX="9" refY="3.5" orient="auto">
      <polygon points="0 0, 10 3.5, 0 7" fill="#06b6d4"/>
    </marker>
  </defs>
</svg>