<?xml version="1.0" encoding="UTF-8"?>
<svg width="800" height="200" viewBox="0 0 800 200" xmlns="http://www.w3.org/2000/svg">
  <defs>
    <linearGradient id="bg1" x1="0%" y1="0%" x2="100%" y2="100%">
      <stop offset="0%" style="stop-color:#0f172a;stop-opacity:1" />
      <stop offset="100%" style="stop-color:#1e293b;stop-opacity:1" />
    </linearGradient>
    <radialGradient id="glow" cx="50%" cy="50%" r="50%">
      <stop offset="0%" style="stop-color:#fbbf24;stop-opacity:0.8" />
      <stop offset="100%" style="stop-color:#fbbf24;stop-opacity:0" />
    </radialGradient>
  </defs>
  
  <!-- Background -->
  <rect width="800" height="200" fill="url(#bg1)"/>
  
  <!-- Central glowing orb representing beauty and elegance -->
  <circle cx="400" cy="100" r="60" fill="url(#glow)"/>
  <circle cx="400" cy="100" r="40" fill="#fbbf24" opacity="0.9"/>
  <circle cx="400" cy="100" r="25" fill="#ffffff" opacity="0.9"/>
  
  <!-- Seven principle points forming a perfect heptagon around the center -->
  <g stroke="#10b981" stroke-width="3" fill="#10b981" opacity="0.8">
    <!-- Principle 1 - top -->
    <circle cx="400" cy="40" r="8"/>
    <!-- Principle 2 - top right -->
    <circle cx="452" cy="55" r="8"/>
    <!-- Principle 3 - bottom right -->
    <circle cx="465" cy="120" r="8"/>
    <!-- Principle 4 - bottom -->
    <circle cx="400" cy="160" r="8"/>
    <!-- Principle 5 - bottom left -->
    <circle cx="335" cy="120" r="8"/>
    <!-- Principle 6 - top left -->
    <circle cx="348" cy="55" r="8"/>
    <!-- Principle 7 - left -->
    <circle cx="335" cy="100" r="8"/>
  </g>
  
  <!-- Connecting lines forming elegant geometric pattern -->
  <g stroke="#10b981" stroke-width="1.5" opacity="0.4" fill="none">
    <line x1="400" y1="40" x2="452" y2="55"/>
    <line x1="452" y1="55" x2="465" y2="120"/>
    <line x1="465" y1="120" x2="400" y2="160"/>
    <line x1="400" y1="160" x2="335" y2="120"/>
    <line x1="335" y1="120" x2="348" y2="55"/>
    <line x1="348" y1="55" x2="400" y2="40"/>
    <line x1="348" y1="55" x2="335" y2="100"/>
    <line x1="335" y1="100" x2="335" y2="120"/>
  </g>
  
  <!-- Architectural elements suggesting structure and foundation -->
  <g transform="translate(100, 150)" opacity="0.6">
    <!-- Foundation blocks -->
    <rect x="0" y="0" width="40" height="15" fill="#64748b" rx="2"/>
    <rect x="45" y="0" width="40" height="15" fill="#64748b" rx="2"/>
    <rect x="90" y="0" width="40" height="15" fill="#64748b" rx="2"/>
    
    <!-- Second layer -->
    <rect x="22" y="-12" width="40" height="12" fill="#94a3b8" rx="2"/>
    <rect x="67" y="-12" width="40" height="12" fill="#94a3b8" rx="2"/>
    
    <!-- Top layer -->
    <rect x="44" y="-22" width="40" height="10" fill="#cbd5e1" rx="2"/>
  </g>
  
  <!-- Mirror architectural elements on the right -->
  <g transform="translate(600, 150)" opacity="0.6">
    <!-- Foundation blocks -->
    <rect x="0" y="0" width="40" height="15" fill="#64748b" rx="2"/>
    <rect x="45" y="0" width="40" height="15" fill="#64748b" rx="2"/>
    <rect x="90" y="0" width="40" height="15" fill="#64748b" rx="2"/>
    
    <!-- Second layer -->
    <rect x="22" y="-12" width="40" height="12" fill="#94a3b8" rx="2"/>
    <rect x="67" y="-12" width="40" height="12" fill="#94a3b8" rx="2"/>
    
    <!-- Top layer -->
    <rect x="44" y="-22" width="40" height="10" fill="#cbd5e1" rx="2"/>
  </g>
  
  <!-- Clean code symbols - elegant curves and flows -->
  <g stroke="#8b5cf6" stroke-width="2" fill="none" opacity="0.5">
    <!-- Left flowing curve -->
    <path d="M50 50 Q150 30 250 50 Q300 60 320 100"/>
    <!-- Right flowing curve -->
    <path d="M750 50 Q650 30 550 50 Q500 60 480 100"/>
    <!-- Bottom flowing curve -->
    <path d="M150 170 Q250 150 350 160 Q450 155 550 160 Q650 150 750 170"/>
  </g>
  
  <!-- Quality indicators - diamond shapes representing refinement -->
  <g fill="#06b6d4" opacity="0.7">
    <polygon points="150,80 160,90 150,100 140,90" transform="rotate(45 150 90)"/>
    <polygon points="650,80 660,90 650,100 640,90" transform="rotate(45 650 90)"/>
    <polygon points="250,30 260,40 250,50 240,40" transform="rotate(45 250 40)"/>
    <polygon points="550,30 560,40 550,50 540,40" transform="rotate(45 550 40)"/>
  </g>
</svg>