<?xml version="1.0" encoding="UTF-8"?>
<svg width="800" height="200" viewBox="0 0 800 200" xmlns="http://www.w3.org/2000/svg">
  <defs>
    <linearGradient id="bg5" x1="0%" y1="0%" x2="100%" y2="100%">
      <stop offset="0%" style="stop-color:#581c87;stop-opacity:1" />
      <stop offset="100%" style="stop-color:#7c3aed;stop-opacity:1" />
    </linearGradient>
    <linearGradient id="objGradient" x1="0%" y1="0%" x2="100%" y2="100%">
      <stop offset="0%" style="stop-color:#10b981;stop-opacity:1" />
      <stop offset="100%" style="stop-color:#059669;stop-opacity:1" />
    </linearGradient>
  </defs>
  
  <!-- Background -->
  <rect width="800" height="200" fill="url(#bg5)"/>
  
  <!-- Central object composition -->
  <g transform="translate(300, 70)">
    <!-- Main class/object -->
    <rect x="50" y="20" width="100" height="60" fill="url(#objGradient)" rx="8" stroke="#ffffff" stroke-width="2"/>
    
    <!-- Encapsulated internal structure -->
    <g opacity="0.8">
      <rect x="60" y="30" width="35" height="8" fill="#ffffff" rx="2"/>
      <rect x="60" y="42" width="25" height="8" fill="#ffffff" rx="2"/>
      <rect x="60" y="54" width="40" height="8" fill="#ffffff" rx="2"/>
      <rect x="60" y="66" width="30" height="8" fill="#ffffff" rx="2"/>
      
      <!-- Private/protected indicators -->
      <circle cx="105" cy="34" r="2" fill="#ef4444"/>
      <circle cx="90" cy="46" r="2" fill="#fbbf24"/>
      <circle cx="105" cy="58" r="2" fill="#10b981"/>
      <circle cx="95" cy="70" r="2" fill="#3b82f6"/>
    </g>
  </g>
  
  <!-- Inheritance hierarchy -->
  <g transform="translate(100, 50)">
    <!-- Base class -->
    <rect x="0" y="0" width="80" height="40" fill="#06b6d4" rx="6" opacity="0.8"/>
    
    <!-- Derived classes -->
    <rect x="-30" y="60" width="60" height="35" fill="#3b82f6" rx="6" opacity="0.8"/>
    <rect x="50" y="60" width="60" height="35" fill="#8b5cf6" rx="6" opacity="0.8"/>
    
    <!-- Inheritance arrows -->
    <path d="M15 40 L0 60" stroke="#ffffff" stroke-width="2" fill="none" marker-end="url(#arrowhead)"/>
    <path d="M65 40 L80 60" stroke="#ffffff" stroke-width="2" fill="none" marker-end="url(#arrowhead)"/>
  </g>
  
  <!-- Polymorphism demonstration -->
  <g transform="translate(550, 60)">
    <!-- Interface/Abstract definition -->
    <rect x="0" y="0" width="100" height="25" fill="#f59e0b" rx="5" stroke="#ffffff" stroke-width="1" stroke-dasharray="3,2"/>
    
    <!-- Multiple implementations -->
    <rect x="-20" y="40" width="50" height="30" fill="#10b981" rx="4"/>
    <rect x="40" y="40" width="50" height="30" fill="#ef4444" rx="4"/>
    <rect x="100" y="40" width="50" height="30" fill="#8b5cf6" rx="4"/>
    
    <!-- Polymorphic connections -->
    <line x1="25" y1="25" x2="5" y2="40" stroke="#fbbf24" stroke-width="2"/>
    <line x1="50" y1="25" x2="65" y2="40" stroke="#fbbf24" stroke-width="2"/>
    <line x1="75" y1="25" x2="125" y2="40" stroke="#fbbf24" stroke-width="2"/>
  </g>
  
  <!-- SOLID principles visualization -->
  <g transform="translate(50, 140)">
    <!-- S - Single Responsibility -->
    <rect x="0" y="0" width="25" height="25" fill="#3b82f6" rx="3"/>
    <circle cx="12.5" cy="12.5" r="6" fill="white"/>
    
    <!-- O - Open/Closed -->
    <rect x="35" y="0" width="25" height="25" fill="#10b981" rx="3"/>
    <rect x="40" y="5" width="15" height="15" fill="none" stroke="white" stroke-width="2"/>
    
    <!-- L - Liskov Substitution -->
    <rect x="70" y="0" width="25" height="25" fill="#f59e0b" rx="3"/>
    <polygon points="77,8 88,8 82.5,18" fill="white"/>
    
    <!-- I - Interface Segregation -->
    <rect x="105" y="0" width="25" height="25" fill="#8b5cf6" rx="3"/>
    <rect x="110" y="5" width="6" height="15" fill="white"/>
    <rect x="119" y="5" width="6" height="15" fill="white"/>
    
    <!-- D - Dependency Inversion -->
    <rect x="140" y="0" width="25" height="25" fill="#ef4444" rx="3"/>
    <polygon points="147,18 158,18 152.5,8" fill="white"/>
  </g>
  
  <!-- Composition over inheritance -->
  <g transform="translate(350, 140)">
    <!-- Composition example -->
    <rect x="0" y="0" width="50" height="30" fill="#64748b" rx="4"/>
    
    <!-- Composed objects -->
    <circle cx="60" cy="15" r="8" fill="#10b981"/>
    <circle cx="80" cy="15" r="8" fill="#3b82f6"/>
    <circle cx="100" cy="15" r="8" fill="#f59e0b"/>
    
    <!-- Composition lines -->
    <line x1="50" y1="15" x2="52" y2="15" stroke="#10b981" stroke-width="2"/>
    <line x1="68" y1="15" x2="72" y2="15" stroke="#3b82f6" stroke-width="2"/>
    <line x1="88" y1="15" x2="92" y2="15" stroke="#f59e0b" stroke-width="2"/>
  </g>
  
  <!-- Design pattern icons -->
  <g transform="translate(600, 140)" opacity="0.7">
    <!-- Visitor pattern -->
    <g>
      <circle cx="10" cy="10" r="6" fill="#06b6d4"/>
      <circle cx="25" cy="10" r="4" fill="#8b5cf6"/>
      <circle cx="35" cy="10" r="4" fill="#8b5cf6"/>
      <circle cx="45" cy="10" r="4" fill="#8b5cf6"/>
      
      <!-- Visitor path -->
      <path d="M16 10 Q20 5 25 10 Q30 15 35 10 Q40 5 45 10" stroke="#fbbf24" stroke-width="1.5" fill="none"/>
    </g>
  </g>
  
  <!-- Encapsulation shields -->
  <g transform="translate(150, 20)" opacity="0.6">
    <path d="M0 10 Q0 0 10 0 L20 0 Q30 0 30 10 L30 25 Q30 35 20 35 L10 35 Q0 35 0 25 Z" 
          fill="#06b6d4" stroke="#ffffff" stroke-width="1"/>
    <circle cx="15" cy="17.5" r="4" fill="white"/>
    <rect x="12" y="14" width="6" height="2" fill="#06b6d4"/>
    <rect x="12" y="19" width="6" height="2" fill="#06b6d4"/>
  </g>
  
  <!-- Information hiding -->
  <g transform="translate(650, 20)" opacity="0.6">
    <rect x="0" y="0" width="40" height="30" fill="#374151" rx="4"/>
    <!-- Keyhole -->
    <circle cx="20" cy="12" r="4" fill="#fbbf24"/>
    <rect x="18" y="12" width="4" height="8" fill="#fbbf24"/>
  </g>
  
  <!-- Arrow markers definition -->
  <defs>
    <marker id="arrowhead" markerWidth="10" markerHeight="7" refX="9" refY="3.5" orient="auto">
      <polygon points="0 0, 10 3.5, 0 7" fill="#ffffff"/>
    </marker>
  </defs>
</svg>