<svg width="2901" height="1574" xmlns="http://www.w3.org/2000/svg" xmlns:xlink="http://www.w3.org/1999/xlink" xml:space="preserve" overflow="hidden"><defs><filter id="fx0" x="-10%" y="-10%" width="120%" height="120%" filterUnits="userSpaceOnUse" primitiveUnits="userSpaceOnUse"><feComponentTransfer color-interpolation-filters="sRGB"><feFuncR type="discrete" tableValues="0 0"/><feFuncG type="discrete" tableValues="0 0"/><feFuncB type="discrete" tableValues="0 0"/><feFuncA type="linear" slope="0.4" intercept="0"/></feComponentTransfer><feGaussianBlur stdDeviation="6.11111 6.11111"/></filter><filter id="fx1" x="-10%" y="-10%" width="120%" height="120%" filterUnits="userSpaceOnUse" primitiveUnits="userSpaceOnUse"><feComponentTransfer color-interpolation-filters="sRGB"><feFuncR type="discrete" tableValues="0 0"/><feFuncG type="discrete" tableValues="0 0"/><feFuncB type="discrete" tableValues="0 0"/><feFuncA type="linear" slope="0.4" intercept="0"/></feComponentTransfer><feGaussianBlur stdDeviation="6.11111 6.11111"/></filter><filter id="fx2" x="-10%" y="-10%" width="120%" height="120%" filterUnits="userSpaceOnUse" primitiveUnits="userSpaceOnUse"><feComponentTransfer color-interpolation-filters="sRGB"><feFuncR type="discrete" tableValues="0 0"/><feFuncG type="discrete" tableValues="0 0"/><feFuncB type="discrete" tableValues="0 0"/><feFuncA type="linear" slope="0.4" intercept="0"/></feComponentTransfer><feGaussianBlur stdDeviation="6.11111 6.11111"/></filter><filter id="fx3" x="-10%" y="-10%" width="120%" height="120%" filterUnits="userSpaceOnUse" primitiveUnits="userSpaceOnUse"><feComponentTransfer color-interpolation-filters="sRGB"><feFuncR type="discrete" tableValues="0 0"/><feFuncG type="discrete" tableValues="0 0"/><feFuncB type="discrete" tableValues="0 0"/><feFuncA type="linear" slope="0.4" intercept="0"/></feComponentTransfer><feGaussianBlur stdDeviation="6.11111 6.11111"/></filter><clipPath id="clip4"><rect x="282" y="814" width="2901" height="1574"/></clipPath><clipPath id="clip5"><rect x="22" y="42" width="89" height="1180"/></clipPath><clipPath id="clip6"><rect x="-3" y="22" width="2368" height="89"/></clipPath></defs><g clip-path="url(#clip4)" transform="translate(-282 -814)"><rect x="299" y="814" width="2884" height="1515" fill="#FDEADA"/><g clip-path="url(#clip5)" filter="url(#fx0)" transform="translate(614 872)"><g><path d="M60.7227 1200.67 60.723 75.6251 70.723 75.6251 70.7227 1200.67ZM43.9041 103.103 65.723 65.6996 87.5419 103.103C88.9333 105.489 88.1276 108.55 85.7424 109.942 83.3571 111.333 80.2955 110.527 78.9041 108.142L61.4041 78.1422 70.0419 78.1422 52.5419 108.142C51.1505 110.527 48.0889 111.333 45.7036 109.942 43.3184 108.55 42.5127 105.489 43.9041 103.103Z"/></g></g><path d="M664.844 2062.95 664.844 938.208 675.157 938.208 675.156 2062.95ZM647.5 966.549 670 927.976 692.501 966.549C693.936 969.009 693.105 972.166 690.645 973.601 688.185 975.036 685.028 974.205 683.593 971.745L665.546 940.808 674.454 940.808 656.407 971.745C654.972 974.205 651.815 975.036 649.355 973.601 646.896 972.166 646.065 969.009 647.5 966.549Z"/><g clip-path="url(#clip6)" filter="url(#fx1)" transform="translate(660 2007)"><g><path d="M19.7239 60.7227 2330.75 61.2933 2330.75 71.2933 19.7214 70.7227ZM2303.23 44.4676 2340.63 66.2957 2303.22 88.1054C2300.84 89.4962 2297.78 88.6898 2296.38 86.3042 2294.99 83.9186 2295.8 80.8572 2298.19 79.4664L2328.19 61.9738 2328.19 70.6116 2298.19 53.1042C2295.81 51.7122 2295 48.6504 2296.39 46.2655 2297.79 43.8806 2300.85 43.0756 2303.23 44.4676Z"/></g></g><path d="M670.001 2057.84 2980.7 2058.41 2980.7 2068.73 669.999 2068.16ZM2952.34 2041.06 2990.91 2063.57 2952.33 2086.06C2949.87 2087.5 2946.71 2086.67 2945.28 2084.21 2943.85 2081.75 2944.68 2078.59 2947.14 2077.16L2978.08 2059.12 2978.08 2068.02 2947.14 2049.97C2944.68 2048.53 2943.85 2045.38 2945.29 2042.92 2946.73 2040.46 2949.88 2039.63 2952.34 2041.06Z"/><text font-family="BIZ UDPGothic,BIZ UDPGothic_MSFontService,sans-serif" font-weight="400" font-size="147" writing-mode="tb-rl" transform="matrix(1 2.95822e-25 -2.95822e-25 1 391.783 1254)" x="55.8428" y="17.6572">複雑さ</text><text font-family="BIZ UDPGothic,BIZ UDPGothic_MSFontService,sans-serif" font-weight="400" font-size="128" transform="matrix(1 0 0 1 1708.78 2291)">時間</text><g filter="url(#fx2)" transform="translate(676 942)"><g><path d="M22.2228 1114.22C36.3648 1111.08 50.6509 1108.53 64.6486 1104.8 74.2509 1102.24 83.2488 1097.6 92.9324 1095.37 103.759 1092.87 114.931 1092.23 125.93 1090.66 157.766 1080.05 118.577 1092.29 168.356 1081.23 173.206 1080.15 177.677 1077.72 182.498 1076.52 190.583 1074.5 211.091 1072.06 220.209 1067.09 233.223 1060 244.663 1050.16 257.921 1043.53 264.207 1040.38 270.355 1036.95 276.777 1034.1 284.51 1030.66 292.918 1028.73 300.347 1024.67 310.294 1019.25 317.881 1009.41 328.631 1005.82 341.2 1001.63 349.98 999.448 361.629 991.684 370 986.103 376.403 977.716 385.198 972.831 390.862 969.685 397.849 969.979 404.054 968.118 413.573 965.263 432.338 958.692 432.338 958.692 463.721 927.314 429.923 956.892 460.622 939.84 470.527 934.338 488.906 920.988 488.906 920.988 506.326 894.863 488.367 915.526 512.475 902.135 522.381 896.634 531.331 889.568 540.759 883.283 545.473 880.141 549.834 876.39 554.901 873.857 561.187 870.715 567.336 867.285 573.757 864.431 590.667 856.917 595.919 855.474 611.469 850.292 628.89 824.166 610.929 844.831 635.039 831.44 644.944 825.938 652.573 816.17 663.323 812.588 684.131 805.653 673.02 810.096 696.32 798.449 704.921 785.55 705.004 781.498 719.89 774.883 728.971 770.848 748.174 765.458 748.174 765.458 757.602 759.174 772.874 757.353 776.458 746.605 782.963 727.093 777.037 735.222 795.314 723.04 811.911 698.149 796.31 718.146 823.598 694.762 828.659 690.424 832.618 684.89 837.739 680.622 845.199 674.407 862.354 664.913 870.737 661.771 876.803 659.496 883.308 658.628 889.593 657.057 940.129 623.372 863.43 675.831 917.877 633.492 926.821 626.537 938.148 622.65 946.161 614.64 964.309 596.496 954.756 604.198 974.444 591.075 977.587 586.362 980.245 581.287 983.872 576.936 988.14 571.815 994.14 568.22 998.015 562.797 1002.1 557.079 1002.94 549.342 1007.44 543.944 1012.88 537.424 1034.57 528.614 1040.44 525.092 1050.16 519.264 1057.97 509.822 1068.72 506.24L1097.01 496.814C1101.72 495.243 1106.71 494.323 1111.15 492.101 1117.43 488.959 1123.48 485.284 1130.01 482.675 1158.02 471.473 1152.83 475.48 1177.15 468.536 1181.92 467.171 1186.51 465.188 1191.29 463.823 1197.52 462.043 1203.91 460.889 1210.14 459.11 1214.92 457.745 1219.4 455.285 1224.28 454.397 1236.75 452.131 1249.43 451.254 1262 449.683 1271.42 446.541 1281.39 444.701 1290.28 440.257 1313.58 428.61 1302.47 433.053 1323.28 426.118 1324.46 424.939 1353.69 392.018 1365.7 388.414 1376.35 385.222 1387.77 385.688 1398.7 383.701 1405.08 382.542 1411.33 380.767 1417.56 378.988 1422.34 377.623 1427.36 376.687 1431.7 374.275 1431.71 374.268 1467.05 350.713 1474.13 345.996 1478.84 342.854 1484.26 340.576 1488.27 336.571 1492.98 331.858 1498.07 327.492 1502.41 322.431 1507.52 316.467 1510.68 308.798 1516.55 303.579 1554.77 269.613 1531.54 293.729 1558.98 280.014 1595.53 261.741 1551.71 277.722 1587.26 265.875 1591.97 262.733 1596.23 258.749 1601.4 256.449 1610.48 252.413 1620.26 250.165 1629.69 247.023 1655.12 238.546 1645.2 240.754 1686.25 237.597 1712.93 235.545 1739.68 234.455 1766.39 232.884L1808.82 218.744C1813.53 217.173 1818.82 216.787 1822.96 214.031 1827.67 210.889 1831.92 206.906 1837.1 204.605 1846.18 200.57 1855.96 198.321 1865.38 195.179L1879.53 190.466C1901.94 175.528 1888.29 182.832 1921.95 171.614 1926.67 170.043 1931.96 169.657 1936.09 166.901 1954.37 154.719 1944.86 159.266 1964.38 152.762 1967.52 148.049 1969.8 142.628 1973.81 138.623 1981.46 130.968 1998.18 124.699 2006.8 119.77 2011.72 116.96 2015.77 112.645 2020.95 110.344 2040.52 101.647 2052.64 100.237 2072.8 96.2053 2086.7 86.9372 2089.74 86.2484 2101.08 72.6402 2120.72 49.0747 2098.73 66.3562 2124.65 49.0747 2126.22 44.3616 2125.49 38.0394 2129.37 34.9358 2134.43 30.8895 2148.22 30.2227 2148.22 30.2227" stroke="#984807" stroke-width="21" stroke-linejoin="round" stroke-miterlimit="10" fill="none" fill-rule="evenodd"/></g></g><path d="M688.5 2046.5C702.642 2043.36 716.928 2040.81 730.926 2037.07 740.528 2034.51 749.526 2029.88 759.21 2027.65 770.036 2025.15 781.208 2024.51 792.207 2022.93 824.044 2012.32 784.854 2024.57 834.633 2013.51 839.484 2012.43 843.954 2010 848.775 2008.8 856.861 2006.77 877.368 2004.34 886.487 1999.37 899.5 1992.27 910.94 1982.43 924.199 1975.8 930.484 1972.66 936.633 1969.23 943.054 1966.38 950.787 1962.94 959.196 1961 966.624 1956.95 976.572 1951.53 984.159 1941.68 994.908 1938.1 1007.48 1933.91 1016.26 1931.73 1027.91 1923.96 1036.28 1918.38 1042.68 1909.99 1051.48 1905.11 1057.14 1901.96 1064.13 1902.26 1070.33 1900.4 1079.85 1897.54 1098.62 1890.97 1098.62 1890.97 1130 1859.59 1096.2 1889.17 1126.9 1872.12 1136.8 1866.62 1155.18 1853.27 1155.18 1853.27 1172.6 1827.14 1154.64 1847.8 1178.75 1834.41 1188.66 1828.91 1197.61 1821.84 1207.04 1815.56 1211.75 1812.42 1216.11 1808.67 1221.18 1806.13 1227.46 1802.99 1233.61 1799.56 1240.03 1796.71 1256.94 1789.19 1262.2 1787.75 1277.75 1782.57 1295.17 1756.44 1277.21 1777.11 1301.32 1763.72 1311.22 1758.22 1318.85 1748.45 1329.6 1744.86 1350.41 1737.93 1339.3 1742.37 1362.6 1730.73 1371.2 1717.83 1371.28 1713.78 1386.17 1707.16 1395.25 1703.13 1414.45 1697.73 1414.45 1697.73 1423.88 1691.45 1439.15 1689.63 1442.73 1678.88 1449.24 1659.37 1443.31 1667.5 1461.59 1655.32 1478.19 1630.43 1462.59 1650.42 1489.87 1627.04 1494.94 1622.7 1498.9 1617.17 1504.02 1612.9 1511.48 1606.68 1528.63 1597.19 1537.01 1594.05 1543.08 1591.77 1549.59 1590.91 1555.87 1589.33 1606.41 1555.65 1529.71 1608.11 1584.15 1565.77 1593.1 1558.81 1604.43 1554.93 1612.44 1546.92 1630.59 1528.77 1621.03 1536.48 1640.72 1523.35 1643.86 1518.64 1646.52 1513.56 1650.15 1509.21 1654.42 1504.09 1660.42 1500.5 1664.29 1495.07 1668.38 1489.36 1669.22 1481.62 1673.72 1476.22 1679.15 1469.7 1700.85 1460.89 1706.72 1457.37 1716.43 1451.54 1724.25 1442.1 1735 1438.52L1763.29 1429.09C1768 1427.52 1772.98 1426.6 1777.43 1424.38 1783.71 1421.24 1789.76 1417.56 1796.28 1414.95 1824.29 1403.75 1819.11 1407.76 1843.42 1400.81 1848.2 1399.45 1852.79 1397.46 1857.56 1396.1 1863.79 1394.32 1870.19 1393.17 1876.42 1391.39 1881.2 1390.02 1885.67 1387.56 1890.56 1386.67 1903.03 1384.41 1915.7 1383.53 1928.27 1381.96 1937.7 1378.82 1947.67 1376.98 1956.56 1372.53 1979.86 1360.89 1968.75 1365.33 1989.56 1358.4 1990.74 1357.22 2019.96 1324.3 2031.98 1320.69 2042.62 1317.5 2054.05 1317.97 2064.98 1315.98 2071.35 1314.82 2077.61 1313.04 2083.83 1311.27 2088.61 1309.9 2093.63 1308.96 2097.98 1306.55 2097.99 1306.55 2133.33 1282.99 2140.4 1278.27 2145.12 1275.13 2150.54 1272.85 2154.54 1268.85 2159.26 1264.13 2164.35 1259.77 2168.69 1254.71 2173.8 1248.74 2176.96 1241.08 2182.83 1235.86 2221.05 1201.89 2197.82 1226.01 2225.25 1212.29 2261.81 1194.02 2217.99 1210 2253.54 1198.15 2258.25 1195.01 2262.5 1191.03 2267.68 1188.73 2276.76 1184.69 2286.54 1182.44 2295.96 1179.3 2321.4 1170.82 2311.48 1173.03 2352.53 1169.87 2379.21 1167.82 2405.96 1166.73 2432.67 1165.16L2475.09 1151.02C2479.81 1149.45 2485.1 1149.06 2489.24 1146.31 2493.95 1143.17 2498.2 1139.18 2503.38 1136.88 2512.46 1132.85 2522.23 1130.6 2531.66 1127.46L2545.8 1122.74C2568.21 1107.81 2554.57 1115.11 2588.23 1103.89 2592.94 1102.32 2598.24 1101.93 2602.37 1099.18 2620.65 1087 2611.14 1091.54 2630.66 1085.04 2633.8 1080.33 2636.08 1074.91 2640.08 1070.9 2647.74 1063.25 2664.45 1056.98 2673.08 1052.05 2678 1049.24 2682.05 1044.92 2687.22 1042.62 2706.8 1033.92 2718.91 1032.51 2739.08 1028.48 2752.98 1019.21 2756.02 1018.53 2767.36 1004.92 2787 981.352 2765 998.633 2790.93 981.352 2792.5 976.639 2791.76 970.317 2795.64 967.213 2800.7 963.167 2814.5 962.5 2814.5 962.5" stroke="#984807" stroke-width="20.625" stroke-linejoin="round" stroke-miterlimit="10" fill="none" fill-rule="evenodd"/><g filter="url(#fx3)" transform="translate(660 1351)"><g><path d="M19.7227 24.7228 2340.04 25.2955" stroke="#215968" stroke-width="10" stroke-linejoin="round" stroke-miterlimit="10" stroke-dasharray="82.5 30.9375" fill="none" fill-rule="evenodd"/></g></g><path d="M670 1366 2990.31 1366.57" stroke="#215968" stroke-width="10.3125" stroke-linejoin="round" stroke-miterlimit="10" stroke-dasharray="82.5 30.9375" fill="none" fill-rule="evenodd"/><text font-family="BIZ UDPGothic,BIZ UDPGothic_MSFontService,sans-serif" font-style="oblique" font-weight="400" font-size="92" transform="matrix(1 0 0 1 2508 1506)">開発者の限界</text></g></svg>