<svg width="3170" height="1307" xmlns="http://www.w3.org/2000/svg" xmlns:xlink="http://www.w3.org/1999/xlink" xml:space="preserve" overflow="hidden"><defs><filter id="fx0" x="-10%" y="-10%" width="120%" height="120%" filterUnits="userSpaceOnUse" primitiveUnits="userSpaceOnUse"><feComponentTransfer color-interpolation-filters="sRGB"><feFuncR type="discrete" tableValues="0 0"/><feFuncG type="discrete" tableValues="0 0"/><feFuncB type="discrete" tableValues="0 0"/><feFuncA type="linear" slope="0.380392" intercept="0"/></feComponentTransfer><feGaussianBlur stdDeviation="4.8119 4.8119"/></filter><filter id="fx1" x="-10%" y="-10%" width="120%" height="120%" filterUnits="userSpaceOnUse" primitiveUnits="userSpaceOnUse"><feComponentTransfer color-interpolation-filters="sRGB"><feFuncR type="discrete" tableValues="0 0"/><feFuncG type="discrete" tableValues="0 0"/><feFuncB type="discrete" tableValues="0 0"/><feFuncA type="linear" slope="0.380392" intercept="0"/></feComponentTransfer><feGaussianBlur stdDeviation="4.8119 4.8119"/></filter><filter id="fx2" x="-10%" y="-10%" width="120%" height="120%" filterUnits="userSpaceOnUse" primitiveUnits="userSpaceOnUse"><feComponentTransfer color-interpolation-filters="sRGB"><feFuncR type="discrete" tableValues="0 0"/><feFuncG type="discrete" tableValues="0 0"/><feFuncB type="discrete" tableValues="0 0"/><feFuncA type="linear" slope="0.380392" intercept="0"/></feComponentTransfer><feGaussianBlur stdDeviation="4.8119 4.8119"/></filter><clipPath id="clip3"><rect x="65" y="814" width="3170" height="1307"/></clipPath><clipPath id="clip4"><path d="M2191.5 1315.5 2191.5 2037.5 3171.5 2037.5 3171.5 1315.5ZM65 814 3235 814 3235 2121 65 2121Z" fill-rule="evenodd" clip-rule="evenodd"/></clipPath><linearGradient x1="2681.5" y1="2037.5" x2="2681.5" y2="1315.5" gradientUnits="userSpaceOnUse" spreadMethod="reflect" id="fill5"><stop offset="0" stop-color="#FFBE86"/><stop offset="0.35" stop-color="#FFD0AA"/><stop offset="1" stop-color="#FFEBDB"/></linearGradient><clipPath id="clip6"><path d="M103.5 1598.5 103.5 1928.5 1727.5 1928.5 1727.5 1598.5ZM65 814 3235 814 3235 2121 65 2121Z" fill-rule="evenodd" clip-rule="evenodd"/></clipPath><clipPath id="clip7"><rect x="46" y="31" width="1520" height="200"/></clipPath><linearGradient x1="915.5" y1="1928.5" x2="915.5" y2="1598.5" gradientUnits="userSpaceOnUse" spreadMethod="reflect" id="fill8"><stop offset="0" stop-color="#DAFDA7"/><stop offset="0.35" stop-color="#E4FDC2"/><stop offset="1" stop-color="#F5FFE6"/></linearGradient></defs><g clip-path="url(#clip3)" transform="translate(-65 -814)"><rect x="65" y="814" width="3170" height="1307" fill="#FDEADA"/><g clip-path="url(#clip4)"><g filter="url(#fx0)" transform="translate(2174 1305)"><g><rect x="17.5" y="17.7179" width="980" height="722" stroke="#F69240" stroke-width="3" stroke-linejoin="round" stroke-miterlimit="10" fill="#FF0000"/></g></g></g><rect x="2191.5" y="1315.5" width="980" height="722" stroke="#F69240" stroke-width="3.4375" stroke-linejoin="round" stroke-miterlimit="10" fill="url(#fill5)"/><text font-family="BIZ UDPGothic,BIZ UDPGothic_MSFontService,sans-serif" font-weight="700" font-size="147" transform="matrix(1 0 0 1 2547.47 1511)">日付</text><path d="M2191 1598 3170.69 1598.57" stroke="#000000" stroke-width="10.3125" stroke-linejoin="round" stroke-miterlimit="10" fill="none" fill-rule="evenodd"/><text font-family="BIZ UDPGothic,BIZ UDPGothic_MSFontService,sans-serif" font-weight="700" font-size="92" transform="matrix(1 0 0 1 2298.26 1764)">日付として正しい</text><text font-family="BIZ UDPGothic,BIZ UDPGothic_MSFontService,sans-serif" font-weight="700" font-size="92" transform="matrix(1 0 0 1 3033.31 1764)">: </text><text font-family="BIZ UDPGothic,BIZ UDPGothic_MSFontService,sans-serif" font-weight="700" font-size="92" transform="matrix(1 0 0 1 2566.95 1874)">bool</text><rect x="206" y="954" width="1521" height="516" fill="#FDEADA"/><text font-family="BIZ UDPGothic,BIZ UDPGothic_MSFontService,sans-serif" font-weight="400" font-size="92" transform="matrix(1 0 0 1 463.776 1199)">クライアント</text><text font-family="BIZ UDPGothic,BIZ UDPGothic_MSFontService,sans-serif" font-weight="400" font-size="92" transform="matrix(1 0 0 1 966.224 1199)">メソッド側の</text><text font-family="BIZ UDPGothic,BIZ UDPGothic_MSFontService,sans-serif" font-weight="400" font-size="92" transform="matrix(1 0 0 1 246.068 1309)">モデル記述でサービスの名前が決定</text><text font-family="BIZ UDPGothic,BIZ UDPGothic_MSFontService,sans-serif" font-weight="400" font-size="92" transform="matrix(1 0 0 1 2368.44 1077)">サービス提供側</text><text font-family="BIZ UDPGothic,BIZ UDPGothic_MSFontService,sans-serif" font-weight="400" font-size="92" transform="matrix(1 0 0 1 2556.06 1187)">クラス</text><path d="M4.00992e-06-5.15625 453.853-5.1559 453.853 5.1566-4.00992e-06 5.15625ZM425.514-22.5004 464.086 0.000358955 425.514 22.5011C423.054 23.9359 419.897 23.1051 418.462 20.6453 417.027 18.1855 417.858 15.0282 420.318 13.5933L451.255-4.45351 451.255 4.45421 420.318-13.5927C417.858-15.0276 417.027-18.1848 418.462-20.6446 419.897-23.1044 423.054-23.9353 425.514-22.5004Z" transform="matrix(1 0 0 -1 1727 1727)"/><text font-family="BIZ UDPGothic,BIZ UDPGothic_MSFontService,sans-serif" font-weight="400" font-size="73" transform="matrix(1 0 0 1 1760.34 1847)">&lt;&lt;uses&gt;&gt;</text><g clip-path="url(#clip6)"><g filter="url(#fx1)" transform="translate(86 1588)"><g><rect x="17.5" y="17.7178" width="1624" height="330" stroke="#98B954" stroke-width="3" stroke-linejoin="round" stroke-miterlimit="10" fill="#FF0000"/></g></g><g clip-path="url(#clip7)" filter="url(#fx2)" transform="translate(101 1645)"><g><path d="M7.66357-58.3857 15.6836-58.3857 15.6836-50.437 7.66357-50.437ZM8.30517-41.2407 15.0063-41.2407 15.0063 1.81787 8.30517 1.81787ZM35.5374-41.2407 35.5374-44.5913C35.5374-49.0588 36.4404-52.5757 38.2464-55.1421 40.8366-58.7778 44.603-60.5957 49.5457-60.5957 53.0627-60.5957 56.3895-59.6452 59.5262-57.7441L56.9241-53.0747C54.7142-54.4292 52.4329-55.1064 50.0804-55.1064 46.6823-55.1064 44.3179-53.55 42.9871-50.437 42.3931-49.0112 42.096-47.0864 42.096-44.6626L42.096-41.2407 56.2469-41.2407 56.2469-36.1436 42.096-36.1436 42.096 1.81787 35.5374 1.81787 35.5374-36.1436 24.5233-36.1436 24.5233-41.2407ZM110.099 6.95068C105.751 3.02978 102.186-1.75846 99.4059-7.41406 95.984-14.3766 94.2731-21.161 94.2731-27.7671 94.2731-35.2524 96.4237-42.8685 100.725-50.6152 103.339-55.2728 106.464-59.2056 110.099-62.4136L115.446-62.4136C112.238-58.7541 109.672-55.3797 107.747-52.2905 102.804-44.4012 100.333-36.203 100.333-27.6958 100.333-19.6639 102.543-11.9172 106.963-4.45557 109.03-0.938639 111.858 2.86344 115.446 6.95068ZM128.763-57.3164 137.104-57.3164 135.714-13.5806 130.153-13.5806ZM128.335-7.37842 137.531-7.37842 137.531 1.81787 128.335 1.81787Z" transform="matrix(1 0 0 1 59.7604 115)"/><path d="M46.9438-8.4834C52.4093-4.84766 60.4056-1.58024 70.9326 1.31885L67.7959 6.4873C61.4749 4.99023 55.2728 2.56641 49.1894-0.78418 46.6706-2.16243 44.4844-3.54069 42.6309-4.91894 35.2643 0.308919 27.0067 4.25358 17.8579 6.91504L14.3647 2.10303C23.8699-0.368327 31.8662-3.90902 38.3535-8.51904 38.2109-8.66162 38.0565-8.81608 37.8901-8.98242 33.0425-13.5449 28.9077-19.3193 25.4858-26.3057 21.4936-14.234 15.0658-4.12288 6.20215 4.02783L2.03174 0C10.3013-7.69922 16.3608-17.2163 20.2104-28.5513 22.0402-33.8742 23.4422-39.9813 24.4165-46.8726L3.70703-46.8726 3.70703-52.041 25.0581-52.041C25.367-54.9876 25.6522-58.4451 25.9136-62.4136L31.7593-61.9502C31.4028-58.0531 31.0583-54.75 30.7256-52.041L69.3286-52.041 69.3286-46.8726 30.0483-46.8726C29.4067-42.619 28.6938-38.7218 27.9097-35.1811L58.8848-35.1811 62.1997-32.187C58.2313-22.2778 53.146-14.3766 46.9438-8.4834ZM42.5596-11.9409C46.4092-15.5291 49.7004-19.6758 52.4331-24.3809 53.5024-26.2581 54.4173-28.2067 55.1777-30.2266L29.2998-30.2266C32.2702-23.264 36.6901-17.1688 42.5596-11.9409ZM112.542-61.166 112.542-54.1797C112.542-45.8151 113.683-38.4604 115.964-32.1157 118.055-26.2938 121.073-20.8877 125.018-15.8975 130.151-9.41016 136.602-4.03971 144.373 0.213867L140.808 5.77441C130.828-0.142578 122.915-7.85368 117.069-17.3589 114.004-22.3729 111.663-28.0641 110.047-34.4326 108.289-26.1393 105.663-19.1411 102.17-13.438 97.3459-5.5249 89.8961 0.974284 79.8206 6.05957L75.6859 1.03369C88.5892-4.55062 97.4647-13.6281 102.312-26.1987 105.093-33.3989 106.483-42.5952 106.483-53.7876L106.483-61.166Z" transform="matrix(1 0 0 1 204.708 115)"/><path d="M5.09717-8.41211 15.3271-8.41211 15.3271 1.81787 5.09717 1.81787Z" transform="matrix(1 0 0 1 351.375 115)"/><path d="M31.688-8.05566C29.0028-11.7389 26.5433-17.1094 24.3096-24.167L28.5513-26.1987C29.7394-21.3511 31.5098-17.0024 33.8623-13.1528 35.1693-17.2401 36.0247-22.9551 36.4287-30.2978L24.9868-30.2978C29.3117-39.4941 32.2464-46.6943 33.791-51.8984L24.9868-51.8984 24.9868-56.9956 37.605-56.9956 39.9932-54.6074C38.2347-49.0944 35.7396-42.5952 32.5078-35.1099L41.312-35.1099C41.0506-27.3156 40.4922-21.2441 39.6367-16.8955 39.0426-13.9251 38.2347-11.2043 37.2129-8.73291 42.5833-3.31494 49.2845-0.605957 57.3164-0.605957L71.8237-0.605957C70.8732 1.27132 70.291 3.07731 70.0771 4.81201L58.4214 4.81201C48.7023 4.81201 40.8843 1.82975 34.9673-4.13477 32.4959 0.0712889 29.4067 3.6595 25.6997 6.62988L22.5273 3.20801 8.59033 3.20801 8.59033 6.91504 3.63574 6.91504 3.63574-17.0024 22.7056-17.0024 22.7056 2.24561C26.3888-0.297038 29.383-3.73079 31.688-8.05566ZM8.59033-12.333 8.59033-1.53271 17.751-1.53271 17.751-12.333ZM59.7759-12.5469 71.0039-12.5469 71.0039-7.59228 40.4209-7.59228 40.4209-12.5469 44.3061-12.5469 44.3061-41.1694 48.9756-41.1694 48.9756-12.5469 54.8213-12.5469 54.8213-51.542C51.5182-50.8291 47.9419-50.1994 44.0923-49.6528L41.811-54.1084C51.0786-55.2728 59.063-57.2095 65.7642-59.9184L69.3999-55.4629C66.3582-54.4173 63.1502-53.4787 59.7759-52.647L59.7759-36.4287 68.9722-36.4287 68.9722-31.6167 59.7759-31.6167ZM4.31299-59.4194 22.0283-59.4194 22.0283-54.8213 4.31299-54.8213ZM1.53271-48.9043 24.0244-48.9043 24.0244-44.0923 1.53271-44.0923ZM4.31299-38.1753 22.1353-38.1753 22.1353-33.5771 4.31299-33.5771ZM4.31299-27.7314 22.1353-27.7314 22.1353-23.2046 4.31299-23.2046ZM91.3695-48.1914 107.695-48.1914 107.695-62.4136 113.54-62.4136 113.54-48.1914 139.81-48.1914 139.81-42.8447 113.54-42.8447 113.54-25.9136 137.85-25.9136 137.85-20.6738 113.54-20.6738 113.54-1.46143 143.268-1.46143 143.268 3.77832 77.1829 3.77832 77.1829-1.46143 107.695-1.46143 107.695-20.6738 83.4564-20.6738 83.4564-25.9136 107.695-25.9136 107.695-42.8447 89.0169-42.8447C86.8545-38.6149 84.3-34.7178 81.3533-31.1533L76.6839-34.896C80.6523-39.6724 83.7534-44.8408 85.9871-50.4014 87.104-53.2292 88.1377-56.5322 89.0882-60.3105L94.8626-59.063C93.7933-55.0708 92.6289-51.4469 91.3695-48.1914ZM209.722-58.2432 209.722 5.48926 203.662 5.48926 203.662-0.285156 162.493-0.285156 162.493 5.41797 156.433 5.41797 156.433-58.2432ZM162.493-53.0747 162.493-32.4722 203.662-32.4722 203.662-53.0747ZM162.493-27.5176 162.493-5.63184 203.662-5.63184 203.662-27.5176Z" transform="matrix(1 0 0 1 374.292 115)"/><path d="M5.09717-8.41211 15.3271-8.41211 15.3271 1.81787 5.09717 1.81787Z" transform="matrix(1 0 0 1 594.292 115)"/><path d="M63.0552-58.2432 63.0552 5.48926 56.9956 5.48926 56.9956-0.285156 15.8262-0.285156 15.8262 5.41797 9.7666 5.41797 9.7666-58.2432ZM15.8262-53.0747 15.8262-32.4722 56.9956-32.4722 56.9956-53.0747ZM15.8262-27.5176 15.8262-5.63184 56.9956-5.63184 56.9956-27.5176ZM91.9398-43.6645 91.9398 6.95068 86.3079 6.95068 86.3079-33.4702C86.2129-33.3276 86.0941-33.1494 85.9515-32.9355 83.8128-29.4424 81.1632-25.866 78.0028-22.2065L75.0086-27.5889C79.7612-33.1019 83.7415-39.2327 86.9495-45.9814 89.2545-50.8053 91.4051-56.3778 93.4012-62.6987L98.9617-61.166C96.7755-54.6312 94.4349-48.7974 91.9398-43.6645ZM132.254-45.126 144.373-45.126 144.373-39.8862 132.254-39.8862 132.254-0.0712891C132.254 2.44759 131.648 4.19417 130.436 5.16846 129.414 5.95264 127.525 6.34473 124.768 6.34473 120.919 6.34473 117.331 6.17838 114.004 5.8457L112.827 0C116.938 0.594075 120.741 0.891113 124.234 0.891113 125.279 0.891113 125.933 0.701009 126.194 0.320801 126.384 0.0118815 126.479-0.582194 126.479-1.46143L126.479-39.8862 95.2904-39.8862 95.2904-45.126 126.479-45.126 126.479-61.8433 132.254-61.8433ZM111.509-11.9766C108.728-18.9391 105.366-25.2839 101.421-31.0107L106.162-34.0762C110.249-28.0641 113.707-21.7669 116.535-15.1846ZM207.548 0.499023C201.155 1.18815 194.442 1.53271 187.408 1.53271 176.501 1.53271 168.849 0.843587 164.453-0.534668 161.625-1.43766 159.344-2.76839 157.61-4.52685 155.423-6.78434 154.33-9.55273 154.33-12.832 154.33-17.1331 156.006-21.0897 159.356-24.7017 160.972-26.4364 162.683-27.8859 164.489-29.0503 166.366-30.2384 168.624-31.5573 171.261-33.0068 167.626-41.609 164.75-49.9261 162.635-57.958L168.41-59.4907C170.62-50.9836 173.222-42.9517 176.216-35.395 184.913-39.3159 194.549-42.7734 205.124-45.7676L206.87-40.4565C195.25-37.4149 184.319-33.4227 174.077-28.48 169.158-26.1037 165.618-23.6798 163.455-21.2085 161.34-18.7371 160.283-16.1351 160.283-13.4023 160.283-9.71907 162.493-7.16455 166.913-5.73877 170.382-4.59814 176.501-4.02783 185.27-4.02783 192.874-4.02783 200.098-4.46745 206.942-5.34668ZM224.542-57.8154 230.459-57.8154 230.459-16.646C230.459-7.02197 235.532-2.20996 245.679-2.20996 250.051-2.20996 253.996-3.57633 257.513-6.30908 262.194-9.94482 266.02-17.1094 268.99-27.8027L274.194-24.5234C271.747-16.1826 268.86-9.94482 265.533-5.81006 260.543 0.39209 253.782 3.49316 245.251 3.49316 236.91 3.49316 231.041 0.879231 227.643-4.34863 225.575-7.53288 224.542-11.6558 224.542-16.7173ZM282.391-52.3975C302.804-52.6588 322.705-53.2292 342.096-54.1084L342.559-48.9043C334.29-48.6191 327.684-47.2765 322.741-44.8765 316.753-41.9536 312.392-37.7832 309.659-32.3652 307.877-28.8721 306.986-25.1413 306.986-21.1728 306.986-15.1846 309.469-10.8122 314.436-8.05566 318.499-5.79818 324.214-4.15853 331.581-3.13672L330.369 2.56641C320.198 1.14062 312.927-1.33073 308.555-4.84766 303.564-8.86361 301.069-14.4004 301.069-21.458 301.069-27.9215 303.481-33.8979 308.305-39.3872 311.608-43.1418 316.04-46.1715 321.6-48.4766L318.179-48.334C305.061-47.835 293.251-47.3478 282.748-46.8726ZM390.147-3.24365 419.839-3.24365 419.839 2.10303 350.867 2.10303 350.867-3.24365 362.843-3.24365 362.843-37.7476 368.76-37.7476 368.76-3.24365 384.301-3.24365 384.301-52.7183 354.289-52.7183 354.289-57.958 417.593-57.958 417.593-52.7183 390.147-52.7183 390.147-32.4009 411.819-32.4009 411.819-27.3037 390.147-27.3037ZM431.365-57.8154 437.282-57.8154 437.282-16.646C437.282-7.02197 442.355-2.20996 452.502-2.20996 456.874-2.20996 460.819-3.57633 464.336-6.30908 469.017-9.94482 472.843-17.1094 475.813-27.8027L481.017-24.5234C478.57-16.1826 475.683-9.94482 472.356-5.81006 467.366 0.39209 460.605 3.49316 452.074 3.49316 443.733 3.49316 437.864 0.879231 434.466-4.34863 432.398-7.53288 431.365-11.6558 431.365-16.7173ZM520.296-15.8618C518.348-10.2775 516.078-5.71501 513.488-2.17432 511.445 0.605957 509.247 1.99609 506.894 1.99609 503.377 1.99609 500.335-0.653483 497.769-5.95264 495.654-10.2775 494.24-15.1014 493.527-20.4243 492.672-26.674 492.244-33.8267 492.244-41.8823 492.244-45.9696 492.399-50.1875 492.707-54.5361L498.624-54.1084C498.363-50.235 498.232-46.4923 498.232-42.8804 498.232-31.8781 498.862-23.4897 500.122-17.7153 501.096-13.1291 502.343-9.70719 503.864-7.44971 505.005-5.73877 506.003-4.8833 506.858-4.8833 507.714-4.8833 508.759-5.81006 509.995-7.66357 511.896-10.4676 513.797-14.4123 515.698-19.4976ZM544.82-8.83984C543.584-18.3688 542.099-26.3057 540.364-32.6504 538.582-39.0902 536.206-45.3874 533.235-51.542L538.618-52.8608C542.039-46.1597 544.713-39.4466 546.638-32.7217 548.277-26.8997 549.667-19.4263 550.808-10.3013Z" transform="matrix(1 0 0 1 617.208 115)"/><path d="M5.09717 6.95068C8.28141 3.29118 10.8478-0.0950522 12.7964-3.20801 17.7391-11.0736 20.2104-19.2362 20.2104-27.6958 20.2104-35.7752 18.0005-43.5457 13.5806-51.0073 11.5132-54.4767 8.68538-58.2788 5.09717-62.4136L10.4438-62.4136C14.7925-58.4689 18.3569-53.6807 21.1372-48.0488 24.5591-41.0863 26.27-34.3138 26.27-27.7314 26.27-20.2461 24.1076-12.63 19.7827-4.8833 17.1925-0.201986 14.0796 3.74268 10.4438 6.95068Z" transform="matrix(1 0 0 1 1175.23 115)"/><path d="M6.13086-51.8984 58.1719-51.8984 58.1719-46.5518 34.7534-46.5518 34.7534-6.77246 62.271-6.77246 62.271-1.53271 1.96045-1.53271 1.96045-6.77246 28.9077-6.77246 28.9077-46.5518 6.13086-46.5518ZM74.72-56.1401 119.846-56.1401 119.846-50.9717 74.72-50.9717ZM69.6229-38.8525 126.618-38.8525C125.573-28.4206 123.208-20.3055 119.525-14.5073 116.246-9.37451 111.672-5.40609 105.802-2.60205 100.503-0.0831707 93.8968 1.79411 85.9837 3.02978L83.346-2.20996C94.9424-3.68327 103.485-6.78434 108.974-11.5132 114.868-16.5985 118.396-23.9888 119.561-33.6841L69.6229-33.6841ZM137.016-31.9019 198.538-31.9019 198.538-26.27 137.016-26.27ZM239.565-27.6602C236.832-24.5947 233.564-21.755 229.762-19.1411L229.762-0.998047C235.513-2.13867 242.25-3.9209 249.973-6.34473L250.472-1.53271C240.491 1.96045 229.513 4.83577 217.536 7.09326L215.505 1.74658C219.045 1.17627 221.897 0.665364 224.059 0.213867L224.059-15.6836C219.473-13.1647 214.162-10.8122 208.126-8.62598L204.989-13.3667C216.823-16.9312 226.174-21.6956 233.042-27.6602L205.203-27.6602 205.203-32.2583 236.749-32.2583 236.749-39.2803 212.796-39.2803 212.796-43.9497 236.749-43.9497 236.749-50.2944 208.875-50.2944 208.875-55.0351 236.749-55.0351 236.749-62.4136 242.381-62.4136 242.381-55.0351 270.825-55.0351 270.825-50.2944 242.381-50.2944 242.381-43.9497 266.904-43.9497 266.904-39.2803 242.381-39.2803 242.381-32.2583 274.568-32.2583 274.568-27.6602 244.84-27.6602C246.622-23.1452 248.868-19.1649 251.577-15.7192 256.71-19.2124 261.236-23.0501 265.157-27.2324L270.041-23.4897C266.239-20.0441 261.141-16.2658 254.749-12.1548 259.573-7.37842 266.203-3.37435 274.639-0.142578L271.11 5.09717C264.86 2.34066 259.811-0.570312 255.961-3.63574 248.476-9.55273 243.01-17.5609 239.565-27.6602ZM316.355-33.0068 316.355 1.03369C316.355 3.02978 315.928 4.46745 315.072 5.34668 314.146 6.27344 312.518 6.73682 310.189 6.73682 306.149 6.73682 302.632 6.58236 299.638 6.27344L298.462 0.712891C301.765 1.16439 304.914 1.39014 307.908 1.39014 309.143 1.39014 309.916 1.21191 310.225 0.855469 310.462 0.546549 310.581 0.047526 310.581-0.641602L310.581-33.0068 279.107-33.0068 279.107-38.1753 347.366-38.1753 347.366-33.0068ZM288.375-57.8154 337.956-57.8154 337.956-52.647 288.375-52.647ZM278.964-3.35059C284.43-8.83984 288.862-16.0638 292.26-25.0225L297.642-23.062C293.983-13.1766 289.242-5.27539 283.42 0.641602ZM341.877-0.0712891C336.72-9.62402 331.885-17.3351 327.37-23.2046L332.182-26.1274C337.695-19.2837 342.637-11.7865 347.01-3.63574Z" transform="matrix(1 0 0 1 232.208 203)"/><path d="M25.3076 6.95068C20.959 3.02978 17.3945-1.75846 14.6143-7.41406 11.1924-14.3766 9.48144-21.161 9.48144-27.7671 9.48144-35.2524 11.632-42.8685 15.9331-50.6152 18.547-55.2728 21.6719-59.2056 25.3076-62.4136L30.6543-62.4136C27.4463-58.7541 24.8799-55.3797 22.9551-52.2905 18.0124-44.4012 15.541-36.203 15.541-27.6958 15.541-19.6639 17.751-11.9172 22.1709-4.45557 24.2383-0.938639 27.0661 2.86344 30.6543 6.95068ZM41.1909-62.4136 50.9575-62.4136 50.9575-56.7817C50.9575-50.7934 48.9614-45.6606 44.9692-41.3833L40.6206-41.3833C43.5672-44.9002 45.3138-48.6548 45.8603-52.647L41.1909-52.647ZM54.6289-62.4136 64.3242-62.4136 64.3242-56.7817C64.3242-50.7222 62.3281-45.5894 58.3359-41.3833L54.0586-41.3833C57.029-44.8765 58.7518-48.631 59.227-52.647L54.6289-52.647Z" transform="matrix(1 0 0 1 582.26 203)"/><path d="M63.0552-58.2432 63.0552 5.48926 56.9956 5.48926 56.9956-0.285156 15.8262-0.285156 15.8262 5.41797 9.7666 5.41797 9.7666-58.2432ZM15.8262-53.0747 15.8262-32.4722 56.9956-32.4722 56.9956-53.0747ZM15.8262-27.5176 15.8262-5.63184 56.9956-5.63184 56.9956-27.5176ZM91.9398-43.6645 91.9398 6.95068 86.3079 6.95068 86.3079-33.4702C86.2129-33.3276 86.0941-33.1494 85.9515-32.9355 83.8128-29.4424 81.1632-25.866 78.0028-22.2065L75.0086-27.5889C79.7612-33.1019 83.7415-39.2327 86.9495-45.9814 89.2545-50.8053 91.4051-56.3778 93.4012-62.6987L98.9617-61.166C96.7755-54.6312 94.4349-48.7974 91.9398-43.6645ZM132.254-45.126 144.373-45.126 144.373-39.8862 132.254-39.8862 132.254-0.0712891C132.254 2.44759 131.648 4.19417 130.436 5.16846 129.414 5.95264 127.525 6.34473 124.768 6.34473 120.919 6.34473 117.331 6.17838 114.004 5.8457L112.827 0C116.938 0.594075 120.741 0.891113 124.234 0.891113 125.279 0.891113 125.933 0.701009 126.194 0.320801 126.384 0.0118815 126.479-0.582194 126.479-1.46143L126.479-39.8862 95.2904-39.8862 95.2904-45.126 126.479-45.126 126.479-61.8433 132.254-61.8433ZM111.509-11.9766C108.728-18.9391 105.366-25.2839 101.421-31.0107L106.162-34.0762C110.249-28.0641 113.707-21.7669 116.535-15.1846ZM151.122-45.6963 166.806-45.6963C167.756-50.5915 168.612-55.4154 169.372-60.168L175.111-59.2056C174.422-55.0233 173.578-50.5202 172.58-45.6963L178.319-45.6963C184.402-45.6963 188.561-44.223 190.795-41.2764 192.363-39.1852 193.147-35.8346 193.147-31.2246 193.147-23.8818 192.375-16.9549 190.83-10.4438 189.88-6.35661 188.692-3.31494 187.266-1.31885 185.602 1.00993 183.321 2.17432 180.422 2.17432 176.763 2.17432 172.806 0.986165 168.552-1.39014L169.265-6.87939C173.4-4.6932 176.881-3.6001 179.709-3.6001 181.016-3.6001 182.026-4.21794 182.739-5.45361 183.642-6.99821 184.486-9.45768 185.27-12.832 186.719-18.8916 187.444-25.1175 187.444-31.5098 187.444-35.5732 186.482-38.1634 184.557-39.2803 183.179-40.0644 181.028-40.4565 178.105-40.4565L171.404-40.4565C169.954-34.1593 168.766-29.4543 167.84-26.3413 164.584-15.6242 160.461-6.07145 155.471 2.31689L150.302-0.534668C157.241-12.036 162.374-25.3433 165.701-40.4565L151.122-40.4565ZM209.437-13.8657C206.443-24.1789 202.034-33.791 196.213-42.7021L201.167-45.0547C207.512-35.0029 212.146-25.4145 215.069-16.2895ZM204.767-45.6963C203.246-49.5697 201.131-53.5143 198.423-57.5303L202.807-59.2056C205.349-55.5223 207.488-51.6252 209.223-47.5142ZM213.678-48.9043C211.777-53.443 209.651-57.3877 207.298-60.7383L211.54-62.271C214.177-58.8253 216.292-54.9995 217.884-50.7935ZM261.241-3.24365 290.933-3.24365 290.933 2.10303 221.96 2.10303 221.96-3.24365 233.937-3.24365 233.937-37.7476 239.854-37.7476 239.854-3.24365 255.395-3.24365 255.395-52.7183 225.382-52.7183 225.382-57.958 288.687-57.958 288.687-52.7183 261.241-52.7183 261.241-32.4009 282.913-32.4009 282.913-27.3037 261.241-27.3037ZM302.458-57.8154 308.375-57.8154 308.375-16.646C308.375-7.02197 313.449-2.20996 323.596-2.20996 327.968-2.20996 331.913-3.57633 335.43-6.30908 340.111-9.94482 343.937-17.1094 346.907-27.8027L352.111-24.5234C349.664-16.1826 346.776-9.94482 343.45-5.81006 338.459 0.39209 331.699 3.49316 323.168 3.49316 314.827 3.49316 308.957 0.879231 305.559-4.34863 303.492-7.53288 302.458-11.6558 302.458-16.7173ZM407.252 3.70703C397.081-4.25358 383.525-13.2716 366.582-23.3472 363.516-25.1769 361.983-26.9591 361.983-28.6938 361.983-30.2384 362.815-31.6167 364.478-32.8286 364.93-33.1613 366.273-33.9336 368.506-35.1455 374.946-38.6149 383.501-43.9141 394.17-51.043 398.258-53.7995 402.036-56.449 405.505-58.9917L408.785-54.5361C404.935-51.7321 400.301-48.5716 394.883-45.0547 385.663-39.0664 378.035-34.4326 371.999-31.1533 370.146-30.1553 369.219-29.4186 369.219-28.9434 369.219-28.4919 369.647-27.981 370.502-27.4106 370.764-27.2205 371.916-26.5552 373.96-25.4145 382.538-20.6619 392.079-14.6737 402.582-7.44971 405.173-5.64372 407.894-3.69515 410.745-1.604ZM427.069-50.7935 445.034-50.7935C445.248-53.2648 445.64-56.4253 446.21-60.2749L451.878-59.562C451.331-56.0451 450.927-53.1222 450.666-50.7935L480.072-50.7935 480.072-45.7676 450.131-45.7676C449.798-42.5596 449.513-39.3516 449.276-36.1436 452.65-36.7139 455.905-36.999 459.042-36.999 467.525-36.999 474.037-34.9198 478.575-30.7612 482.306-27.3631 484.171-22.9788 484.172-17.6084 484.171-6.01204 475.985 1.02181 459.612 3.49316L457.082-1.17627C471.197-3.21989 478.255-8.75667 478.255-17.7866 478.255-24.0125 475.45-28.278 469.842-30.583 464.971-21.9808 458.804-14.6855 451.343-8.69726 447.184-5.34668 443.549-3.00602 440.436-1.67529 438.131-0.677246 435.838-0.178223 433.556-0.178223 430.538-0.178223 428.186-1.16439 426.499-3.13672 424.835-5.08529 424.004-7.85368 424.004-11.4419 424.004-16.9312 426.225-21.9689 430.669-26.5552 434.21-30.1909 438.511-32.8999 443.572-34.6821 443.81-38.3892 444.119-42.0843 444.499-45.7676L427.069-45.7676ZM443.359-29.4067C439.152-27.6483 435.766-25.0462 433.2-21.6006 430.633-18.1074 429.35-14.7093 429.35-11.4062 429.35-7.20019 430.93-5.09717 434.091-5.09717 436.729-5.09717 440.174-6.62988 444.428-9.69531 443.667-14.4242 443.287-19.6045 443.287-25.2363 443.287-26.472 443.311-27.8621 443.359-29.4067ZM448.812-31.1533C448.788-29.181 448.776-27.5057 448.776-26.1274 448.776-21.4699 448.99-17.3114 449.418-13.6519 456.167-19.7352 461.228-25.866 464.603-32.0444 463.153-32.2583 461.454-32.3652 459.505-32.3652 455.537-32.3652 451.973-31.9613 448.812-31.1533ZM517.361-29.5493C515.151-25.6284 512.906-22.6105 510.624-20.4956 508.628-18.6659 506.894-17.751 505.42-17.751 501.024-17.751 498.826-24.3096 498.826-37.4268 498.826-43.9616 499.587-51.0311 501.107-58.6352L506.775-57.8154C505.325-49.736 504.601-42.8922 504.601-37.2842 504.601-28.9196 505.242-24.7373 506.525-24.7373 506.953-24.7373 507.678-25.272 508.7-26.3413 510.719-28.48 512.466-31.0583 513.939-34.0762ZM514.367-0.962402C521.567-2.9585 527.045-6.14274 530.799-10.5151 535.172-15.6004 537.358-23.2046 537.358-33.3276 537.358-40.5991 536.609-49.1063 535.112-58.8491L541.029-59.4194C542.621-49.8905 543.417-41.0981 543.417-33.0425 543.417-20.7095 540.53-11.6676 534.756-5.91699 530.692-1.85352 524.942 1.43766 517.504 3.95654ZM588.16-59.9897 593.864-59.9897 593.864-50.2231 616.427-50.2231 616.427-45.1973 593.864-45.1973 593.864-35.395 615.179-35.395 615.179-30.4404 593.864-30.4404 593.864-18.4639C602.608-15.5173 610.807-11.2637 618.458-5.70312L615.322-0.712891C609.191-5.48926 602.038-9.68343 593.864-13.2954L593.864-12.2617C593.864-6.39225 592.153-2.25749 588.731 0.142578 586.283 1.87728 582.754 2.74463 578.144 2.74463 574.247 2.74463 570.825 2.00797 567.879 0.534668 563.53-1.604 561.356-4.71696 561.356-8.8042 561.356-13.2954 563.637-16.5391 568.199-18.5352 571.36-19.9134 575.435-20.6025 580.426-20.6025 582.802-20.6025 585.38-20.3768 588.16-19.9253L588.16-30.4404 562.675-30.4404 562.675-35.395 588.16-35.395 588.16-45.1973 561.356-45.1973 561.356-50.2231 588.16-50.2231ZM588.16-14.9707C585.166-15.6123 582.243-15.9331 579.392-15.9331 576.017-15.9331 573.285-15.4341 571.194-14.436 568.58-13.2004 567.273-11.3587 567.273-8.91113 567.273-6.81999 568.306-5.16846 570.374-3.95654 572.37-2.81592 574.96-2.24561 578.144-2.24561 582.113-2.24561 584.881-3.37435 586.449-5.63184 587.59-7.27148 588.16-9.5765 588.16-12.5469ZM671.346-58.7422 677.05-58.7422 677.05-43.2012 690.559-43.2012 690.559-38.104 677.05-38.104 677.05-23.9531C677.05-21.4818 676.646-19.7471 675.838-18.749 674.84-17.5371 673.034-16.9311 670.42-16.9312 667.069-16.9311 663.612-17.5133 660.047-18.6777L660.047-23.8105C663.516-22.765 666.451-22.2422 668.851-22.2422 670.063-22.2422 670.812-22.5392 671.097-23.1333 671.263-23.4897 671.346-24.0244 671.346-24.7373L671.346-38.104 645.326-38.104 645.326-10.0161C645.326-7.14079 646.383-5.38232 648.498-4.74072 650.304-4.19417 655.057-3.9209 662.756-3.9209 669.624-3.9209 676.182-4.19417 682.432-4.74072L682.646 0.712891C676.111 1.16439 669.398 1.39014 662.507 1.39014 655.378 1.39014 650.518 1.17627 647.928 0.748535 644.411 0.15446 642.023-1.21191 640.763-3.35059 639.955-4.77637 639.552-6.72493 639.552-9.19629L639.552-38.104 626.256-38.104 626.256-43.2012 639.552-43.2012 639.552-58.1719 645.326-58.1719 645.326-43.2012 671.346-43.2012ZM696.05-0.213867C699.472-8.222 703.951-18.0005 709.488-29.5493 715.785-42.6903 720.847-52.7658 724.673-59.7759L729.627-57.7441C724.233-47.6211 718.589-36.6426 712.696-24.8086 717.33-30.084 721.738-32.7217 725.92-32.7217 728.891-32.7217 731.113-31.5692 732.586-29.2642 733.845-27.3156 734.475-24.6066 734.475-21.1372 734.475-20.3055 734.416-19.2243 734.297-17.8936 734.13-15.7786 734.047-13.8301 734.047-12.0479 734.047-9.38639 734.285-7.47347 734.76-6.30908 735.283-5.00212 736.222-4.00407 737.576-3.31494 738.574-2.81592 739.703-2.56641 740.962-2.56641 744.978-2.56641 748.139-5.04964 750.444-10.0161 752.511-14.5311 754.139-20.8758 755.327-29.0503L760.353-25.9136C758.998-17.0737 757.228-10.5033 755.042-6.20215 751.881 0.0237627 747.117 3.13672 740.748 3.13672 736.091 3.13672 732.752 1.55648 730.732-1.604 729.259-3.88525 728.522-7.37842 728.522-12.0835 728.522-13.4142 728.606-14.9469 728.772-16.6816 728.914-18.345 728.986-19.652 728.986-20.6025 728.986-25.1888 727.56-27.4819 724.708-27.4819 722.617-27.4819 720.289-26.4482 717.722-24.3809 714.348-21.6719 711.496-18.1074 709.167-13.6875 707.171-9.93294 704.605-4.27734 701.468 3.2793ZM779.165-16.5747C780.519-16.5747 781.874-16.3014 783.228-15.7549 784.963-15.0182 786.413-13.9251 787.577-12.4756 789.264-10.4082 790.108-8.07943 790.108-5.48926 790.108-3.68327 789.656-1.94857 788.753-0.285156 787.874 1.30697 786.674 2.60205 785.153 3.6001 783.276 4.85954 781.232 5.48926 779.022 5.48926 776.884 5.48926 774.888 4.85954 773.034 3.6001 769.731 1.39014 768.079-1.67529 768.08-5.59619 768.079-7.35465 768.519-9.02995 769.398-10.6221 770.99-13.5924 773.379-15.4697 776.563-16.2539 777.418-16.4678 778.286-16.5747 779.165-16.5747ZM779.022-12.0479C777.858-12.0478 776.741-11.7152 775.672-11.0498 773.628-9.7666 772.606-7.91308 772.606-5.48926 772.606-3.82585 773.189-2.36442 774.353-1.10498 775.636 0.273275 777.228 0.962402 779.129 0.962402 780.199 0.962402 781.209 0.701009 782.159 0.178223 784.44-1.05745 785.581-2.97038 785.581-5.56055 785.581-7.55664 784.809-9.20817 783.264-10.5151 782.076-11.5369 780.662-12.0478 779.022-12.0479Z" transform="matrix(1 0 0 1 652.729 203)"/><path d="M5.09717-62.4136 14.8638-62.4136 14.8638-56.7817C14.8638-50.7934 12.8677-45.6606 8.87549-41.3833L4.52685-41.3833C7.47347-44.9002 9.22005-48.6548 9.7666-52.647L5.09717-52.647ZM18.5352-62.4136 28.2305-62.4136 28.2305-56.7817C28.2305-50.7222 26.2344-45.5894 22.2422-41.3833L17.9648-41.3833C20.9352-44.8765 22.658-48.631 23.1333-52.647L18.5352-52.647ZM39.4722 6.95068C42.6564 3.29118 45.2228-0.0950522 47.1714-3.20801 52.1141-11.0736 54.5854-19.2362 54.5854-27.6958 54.5854-35.7752 52.3755-43.5457 47.9556-51.0073 45.8882-54.4767 43.0604-58.2788 39.4722-62.4136L44.8188-62.4136C49.1675-58.4689 52.7319-53.6807 55.5122-48.0488 58.9341-41.0863 60.645-34.3138 60.645-27.7314 60.645-20.2461 58.4826-12.63 54.1577-4.8833 51.5675-0.201986 48.4546 3.74268 44.8188 6.95068ZM77.0273-41.2407 86.5088-41.2407 86.5088-31.688 77.0273-31.688ZM77.0273-12.1191 86.5088-12.1191 86.5088-6.34473C86.5088-0.570313 84.6909 4.44368 81.0552 8.69726L77.0273 8.69726C79.6888 5.22786 81.2453 1.47331 81.6968-2.56641L77.0273-2.56641Z" transform="matrix(1 0 0 1 1459.97 203)"/></g></g></g><rect x="103.5" y="1598.5" width="1624" height="330" stroke="#98B954" stroke-width="3.4375" stroke-linejoin="round" stroke-miterlimit="10" fill="url(#fill8)"/><text font-family="BIZ UDPGothic,BIZ UDPGothic_MSFontService,sans-serif" font-weight="400" font-size="73" transform="matrix(1 0 0 1 160.76 1752)">if (!</text><text font-family="BIZ UDPGothic,BIZ UDPGothic_MSFontService,sans-serif" font-weight="400" font-size="73" transform="matrix(1 0 0 1 305.708 1752)">友人</text><text font-family="BIZ UDPGothic,BIZ UDPGothic_MSFontService,sans-serif" font-weight="400" font-size="73" transform="matrix(1 0 0 1 452.375 1752)">.</text><text font-family="BIZ UDPGothic,BIZ UDPGothic_MSFontService,sans-serif" font-weight="400" font-size="73" transform="matrix(1 0 0 1 475.292 1752)">誕生日</text><text font-family="BIZ UDPGothic,BIZ UDPGothic_MSFontService,sans-serif" font-weight="400" font-size="73" transform="matrix(1 0 0 1 695.292 1752)">.</text><text font-family="BIZ UDPGothic,BIZ UDPGothic_MSFontService,sans-serif" font-weight="400" font-size="73" transform="matrix(1 0 0 1 718.208 1752)">日付として正しい</text><text font-family="BIZ UDPGothic,BIZ UDPGothic_MSFontService,sans-serif" font-weight="400" font-size="73" transform="matrix(1 0 0 1 1276.23 1752)">)</text><text font-family="BIZ UDPGothic,BIZ UDPGothic_MSFontService,sans-serif" font-weight="400" font-size="73" transform="matrix(1 0 0 1 333.208 1840)">エラー表示</text><text font-family="BIZ UDPGothic,BIZ UDPGothic_MSFontService,sans-serif" font-weight="400" font-size="73" transform="matrix(1 0 0 1 683.26 1840)">("</text><text font-family="BIZ UDPGothic,BIZ UDPGothic_MSFontService,sans-serif" font-weight="400" font-size="73" transform="matrix(1 0 0 1 753.729 1840)">日付が正しくありません。</text><text font-family="BIZ UDPGothic,BIZ UDPGothic_MSFontService,sans-serif" font-weight="400" font-size="73" transform="matrix(1 0 0 1 1560.97 1840)">");</text></g></svg>